<svg xmlns="http://www.w3.org/2000/svg" xmlns:xlink="http://www.w3.org/1999/xlink" width="48" height="48"><defs><linearGradient id="a" x2="0" y1="20" y2="44" gradientTransform="translate(384.57 499.8)" gradientUnits="userSpaceOnUse"><stop stop-color="#eff0f1"/><stop offset="1" stop-color="#bdc3c7"/></linearGradient><linearGradient id="b" x1="10" x2="15" y1="36" y2="41" gradientTransform="translate(384.57 500.8)" gradientUnits="userSpaceOnUse"><stop stop-color="#292c2f"/><stop offset="1" stop-opacity="0"/></linearGradient><linearGradient id="c" x1="9.905" x2="14.905" y1="36" y2="41" gradientTransform="translate(398.67 500.8)" gradientUnits="userSpaceOnUse" xlink:href="#b"/><linearGradient id="d" x1="25.07" x2="25" y1="33.844" y2="10" gradientTransform="matrix(1 0 0 1.08333 384.57 492.96)" gradientUnits="userSpaceOnUse"><stop stop-color="#1abc9c"/><stop offset="1" stop-color="#2980b9"/></linearGradient><linearGradient id="e" x1="396.57" x2="419.57" y1="509.8" y2="533.8" gradientUnits="userSpaceOnUse" xlink:href="#b"/></defs><g transform="translate(-384.57-499.8)"><rect width="32" height="26" x="392.57" y="503.8" fill="url(#d)" rx="0"/><path fill="#232629" d="m408.57 533.8c-1.662 0-3 1.338-3 3 0 1.662 1.338 3 3 3 1.305 0 2.398-.841 2.813-2h8.375c.414 1.159 1.507 2 2.813 2 1.662 0 3-1.338 3-3 0-1.662-1.338-3-3-3-1.305 0-2.398.841-2.813 2h-8.375c-.414-1.159-1.507-2-2.813-2" opacity=".2"/><path fill="url(#a)" d="m388.57 529.8v14h40v-14z"/><path fill="#4d4d4d" d="m411.38 537.8h8.375c.414 1.159 1.507 2 2.813 2 1.662 0 3-1.338 3-3 0-1.662-1.338-3-3-3-1.305 0-2.398.841-2.813 2h-8.375c.188 1 .188 1 0 2" opacity=".779"/><path fill="url(#c)" d="m406.67 539.13l4.762 4.667h8.143l-9.143-9.429z" opacity=".2"/><path fill="url(#b)" d="m392.57 539.13l4.619 4.667h13.381l-4.867-6.937-7.133-.067-2.238-2.425z" opacity=".2"/><path fill="#1abc9c" d="m394.57 533.8c-1.662 0-3 1.338-3 3 0 1.662 1.338 3 3 3 1.305 0 2.398-.841 2.813-2h8.375c.414 1.159 1.507 2 2.813 2 1.662 0 3-1.338 3-3 0-1.662-1.338-3-3-3-1.305 0-2.398.841-2.813 2h-8.375c-.414-1.159-1.507-2-2.813-2"/><rect width="40" height="1" x="388.57" y="542.8" fill="#95a5a6" rx="0"/><rect width="40" height="1" x="388.57" y="529.8" fill="#eff0f1" rx="0"/><path fill="url(#e)" fill-rule="evenodd" d="m409.57 513.8v1l-1 9 20 19v-14l-19-19z" opacity=".2"/><path fill="#fcfcfc" stroke-width="2" d="m407.57 509.8v10l-4.5-4.5-1.5 1.5 7 7 7-7-1.5-1.5-4.5 4.5v-10z" color="#000" color-interpolation="sRGB" color-interpolation-filters="linearRGB" color-rendering="auto" image-rendering="auto" shape-rendering="auto" text-rendering="auto"/></g></svg>