<svg xmlns="http://www.w3.org/2000/svg" xmlns:svg="http://www.w3.org/2000/svg" xmlns:xlink="http://www.w3.org/1999/xlink" id="svg2" width="48" height="48" version="1.1"><metadata id="metadata62"/><defs id="defs4"><linearGradient id="a" x2="0" y1="543.8" y2="513.8" gradientTransform="matrix(1.125 0 0 1-51.07 0)" gradientUnits="userSpaceOnUse"><stop id="stop7" stop-color="#197cf1"/><stop id="stop9" offset="1" stop-color="#20bcfa"/></linearGradient><linearGradient id="b" x2="0" y1="44" y2="11" gradientUnits="userSpaceOnUse" xlink:href="#a"/><linearGradient id="c" x2="0" y1="10" y2="14" gradientUnits="userSpaceOnUse"><stop id="stop13" stop-color="#1d1e1e"/><stop id="stop15" offset="1" stop-color="#44484c"/></linearGradient><linearGradient id="d" x2="0" y1="14" y2="10" gradientUnits="userSpaceOnUse" xlink:href="#a"/><linearGradient id="e" x2="0" y1="516.8" y2="503.8" gradientUnits="userSpaceOnUse" xlink:href="#a"/><linearGradient id="f" x2="0" y1="18" y2="15" gradientUnits="userSpaceOnUse"><stop id="stop20" stop-color="#c6cdd1"/><stop id="stop22" offset="1" stop-color="#e0e5e7"/></linearGradient><linearGradient id="g" x2="0" y1="517.8" y2="514.8" gradientUnits="userSpaceOnUse" xlink:href="#f"/><linearGradient id="h" x2="0" y1="19" y2="3" gradientTransform="translate(0-2)" gradientUnits="userSpaceOnUse"><stop id="stop26" stop-color="#7cbaf8"/><stop id="stop28" offset="1" stop-color="#f4fcff"/></linearGradient><linearGradient id="i" x1="16" x2="32" y1="23" y2="39" gradientUnits="userSpaceOnUse"><stop id="stop31" stop-color="#292c2f"/><stop id="stop33" offset="1" stop-opacity="0"/></linearGradient><path id="j" fill-rule="evenodd" d="m10 10l-1 1 1 1-4 2h36l-4-2 1-1-1-1h-14z"/></defs><g id="g36" transform="translate(-384.57-499.8)"><path id="path38" fill="url(#b)" fill-rule="evenodd" d="m9 11v2l1-1zm30 0l-1 1 1 1z" transform="translate(384.57 499.8)"/><rect id="rect40" width="36" height="30" x="390.57" y="513.8" fill="url(#a)" rx="0"/><rect id="rect44" width="36" height="1" x="390.57" y="542.8" fill="#1c5593"/><use id="use46" fill="url(#d)" transform="translate(384.57 499.8)" xlink:href="#j"/><use id="use48" fill="url(#c)" opacity=".6" transform="translate(384.57 499.8)" xlink:href="#j"/><path id="path50" d="m10 10l-1 1h30l-1-1h-14z" opacity=".2" transform="translate(384.57 499.8)"/><path id="path52" fill="url(#e)" d="m400.57 516.8v-5c0-4.432 3.568-8 8-8 4.432 0 8 3.568 8 8v5h-1v-5c0-3.878-3.122-7-7-7-3.878 0-7 3.122-7 7v5z"/><path id="path54" fill="url(#g)" d="m401.07143 514.798a1.5 1.5 0 0 1 1.5 1.5 1.5 1.5 0 0 1 -1.5 1.5 1.5 1.5 0 0 1 -1.5 -1.5 1.5 1.5 0 0 1 1.5 -1.5m0 1a.5 .5 0 0 0 -.5 .5 .5 .5 0 0 0 .5 .5 .5 .5 0 0 0 .5 -.5 .5 .5 0 0 0 -.5 -.5"/><path id="path56" fill="url(#f)" d="M31.5 15A1.5 1.5 0 0 0 30 16.5 1.5 1.5 0 0 0 31.5 18 1.5 1.5 0 0 0 33 16.5 1.5 1.5 0 0 0 31.5 15M31.5 16A.5 .5 0 0 1 32 16.5 .5 .5 0 0 1 31.5 17 .5 .5 0 0 1 31 16.5 .5 .5 0 0 1 31.5 16" transform="translate(384.57 499.8)"/></g></svg>