<svg xmlns="http://www.w3.org/2000/svg" xmlns:xlink="http://www.w3.org/1999/xlink" width="64" height="64" version="1.1"><defs id="defs3811"><linearGradient id="linearGradient4344"><stop id="stop4346" stop-color="#ed868d"/><stop id="stop4348" offset="1" stop-color="#fbe6e8"/></linearGradient><linearGradient id="linearGradient4435"><stop id="stop4437" stop-color="#c61423"/><stop id="stop4439" offset="1" stop-color="#dc2b41"/></linearGradient><linearGradient id="linearGradient4394" x1="20" x2="44" y1="20" y2="44" gradientTransform="matrix(1 0 0 1 0 -7)" gradientUnits="userSpaceOnUse" xlink:href="#linearGradient4400"/><linearGradient id="linearGradient4400"><stop id="stop4402" stop-color="#020303"/><stop id="stop4404" offset="1" stop-color="#424649" stop-opacity="0"/></linearGradient><linearGradient id="linearGradient4179" x2="0" y1="201.934" y2="177.934" gradientTransform="matrix(1 0 0 1 0 -7)" gradientUnits="userSpaceOnUse" xlink:href="#linearGradient4344"/><linearGradient id="linearGradient4416" x2="0" y1="44" y2="7" gradientTransform="matrix(-1.4054053 0 0 1.4054053 804.69502 154.09579)" gradientUnits="userSpaceOnUse" xlink:href="#linearGradient4435"/></defs><metadata id="metadata3814"/><g id="layer1" transform="matrix(1 0 0 1 -736.85718 -157.93361)"><path id="path4445" fill="url(#linearGradient4416)" fill-rule="evenodd" d="m 794.85718,163.93361 0,37.94594 -25.29727,0 -14.05412,14.05406 0,-14.05406 -12.64861,0 0,-37.94594 z"/><path id="path4389" fill="url(#linearGradient4394)" fill-rule="evenodd" d="M 44 14.414062 L 21.53125 37.03125 L 30.574219 46.074219 L 32.703125 43.945312 L 49.703125 43.945312 A 26 26 0 0 0 57.783203 28.197266 L 44 14.414062 z" opacity=".2" transform="matrix(1 0 0 1 736.85718 157.93361)"/><path id="rect4168" fill="url(#linearGradient4179)" d="m 779.44312,170.93361 1.41406,1.41406 -10.58594,10.58594 10.58594,10.58594 -1.41406,1.41406 -10.58594,-10.58594 -10.58594,10.58594 -1.41406,-1.41406 10.58594,-10.58594 -10.58594,-10.58594 1.41406,-1.41406 10.58594,10.58594 10.58594,-10.58594 z"/><path id="path4256" fill="#aa111e" fill-rule="evenodd" d="M 6 42.945312 L 6 43.945312 L 18.648438 43.945312 L 18.648438 42.945312 L 6 42.945312 z M 32.703125 42.945312 L 18.648438 57 L 18.648438 58 L 32.703125 43.945312 L 58 43.945312 L 58 42.945312 L 32.703125 42.945312 z" transform="matrix(1 0 0 1 736.85718 157.93361)"/></g></svg>