<svg xmlns="http://www.w3.org/2000/svg" xmlns:xlink="http://www.w3.org/1999/xlink" width="32" height="32" version="1.1"><defs id="defs5455"><linearGradient id="linearGradient4346" x2="0" y1="542.798" y2="538.798" gradientTransform="matrix(1 0 0 1 -0.00007 2)" gradientUnits="userSpaceOnUse" xlink:href="#linearGradient4303"/><linearGradient id="linearGradient4303"><stop id="stop4305" stop-color="#c6cdd1"/><stop id="stop4307" offset="1" stop-color="#e0e5e7"/></linearGradient><linearGradient id="linearGradient4173" x1="393.571" x2="410.571" y1="519.798" y2="536.798" gradientUnits="userSpaceOnUse" xlink:href="#linearGradient4293"/><linearGradient id="linearGradient4293"><stop id="stop4295"/><stop id="stop4297" offset="1" stop-opacity="0"/></linearGradient><linearGradient id="linearGradient4338" x2="0" y1="538.798" y2="519.798" gradientTransform="matrix(1 0 0 1.2105271 -3.00004 -111.43158)" gradientUnits="userSpaceOnUse" xlink:href="#linearGradient4159"/><linearGradient id="linearGradient4159"><stop id="stop4161" stop-color="#2a2c2f"/><stop id="stop4163" offset="1" stop-color="#424649"/></linearGradient><linearGradient id="linearGradient4219"><stop id="stop4221" stop-color="#c3ced7"/><stop id="stop4223" offset="1" stop-color="#e2f4f4"/></linearGradient><linearGradient id="linearGradient4479" x2="0" y1="533.798" y2="521.798" gradientTransform="matrix(1 0 0 1 -384.57143 -515.798)" gradientUnits="userSpaceOnUse" xlink:href="#linearGradient4219"/><linearGradient id="linearGradient4279" x1="9" x2="23" y1="5" y2="19" gradientUnits="userSpaceOnUse" xlink:href="#linearGradient4293"/><linearGradient id="linearGradient4703" x1="418.17" x2="384.571" y1="503.079" y2="531.458" gradientTransform="matrix(0.91666628 0 0 0.91666628 -340.52366 -455.81464)" gradientUnits="userSpaceOnUse" xlink:href="#linearGradient4697"/><linearGradient id="linearGradient4697"><stop id="stop4699" stop-color="#4ce0c6"/><stop id="stop4701" offset="1" stop-color="#3b85b5"/></linearGradient><linearGradient id="linearGradient4532" x1="404.045" x2="430.736" y1="521.633" y2="528.35" gradientTransform="matrix(0.91666628 0 0 0.91666628 -340.52366 -455.81464)" gradientUnits="userSpaceOnUse" xlink:href="#linearGradient4526"/><linearGradient id="linearGradient4526"><stop id="stop4528" stop-color="#ffc169"/><stop id="stop4530" offset="1" stop-color="#ffa92d"/></linearGradient><linearGradient id="linearGradient4474" x1="398.092" x2="394.003" y1="542.224" y2="524.9" gradientTransform="matrix(0.91666628 0 0 0.91666628 -340.52366 -455.81464)" gradientUnits="userSpaceOnUse" xlink:href="#linearGradient4468"/><linearGradient id="linearGradient4468"><stop id="stop4470" stop-color="#334545"/><stop id="stop4472" offset="1" stop-color="#536161"/></linearGradient><linearGradient id="linearGradient4500" x1="431.571" x2="439.571" y1="568.798" y2="562.798" gradientTransform="matrix(-1 0 0 1 839.14285 -40.00001)" gradientUnits="userSpaceOnUse" xlink:href="#linearGradient4468"/><linearGradient id="linearGradient4498" x1="406.537" x2="423.32" y1="581.87" y2="572.678" gradientTransform="matrix(-0.91666628 0 0 0.91666628 428.69029 -492.4813)" gradientUnits="userSpaceOnUse" xlink:href="#linearGradient4468"/><linearGradient id="linearGradient4496" x1="423.054" x2="431.225" y1="572.334" y2="566.766" gradientTransform="matrix(-0.91666628 0 0 0.91666628 448.69029 -492.4813)" gradientUnits="userSpaceOnUse" xlink:href="#linearGradient4468"/><linearGradient id="linearGradient4492" x1="431.313" x2="440.632" y1="577.102" y2="571.445" gradientTransform="matrix(-0.91666628 0 0 0.91666628 428.69029 -492.4813)" gradientUnits="userSpaceOnUse" xlink:href="#linearGradient4468"/><linearGradient id="linearGradient4490" x1="430.567" x2="423.75" y1="577.362" y2="591.328" gradientTransform="matrix(-0.91666628 0 0 0.91666628 428.69029 -492.4813)" gradientUnits="userSpaceOnUse" xlink:href="#linearGradient4468"/></defs><metadata id="metadata5458"/><g id="layer1" transform="matrix(1 0 0 1 -384.57143 -515.798)"><g id="g4578" transform="matrix(0.62499973 0 0 0.54999974 145.21438 241.70923)"><path id="path4589" fill="url(#linearGradient4703)" d="M 12,6 12,36 56,36 56,6 12,6 Z" transform="matrix(1.0909096 0 0 1.0909096 371.48052 497.25255)"/><path id="path4284" fill="url(#linearGradient4532)" stroke-linecap="round" stroke-width="2" d="M 56,6 25.71875,23.482422 47.400391,36 56,36 56,6 Z" transform="matrix(1.0909096 0 0 1.0909096 371.48052 497.25255)"/><path id="path4284-5-6" fill="url(#linearGradient4474)" stroke-linecap="round" stroke-width="2" d="M 25.75,23.416016 12,31.355469 12,36 47.605469,36 25.75,23.416016 Z" transform="matrix(1.0909096 0 0 1.0909096 371.48052 497.25255)"/><path id="path4284-5-6-2-2" fill="url(#linearGradient4500)" stroke-linecap="round" stroke-width="2" d="m 407.82995,527.56606 -8.25852,-4.76806 0,9.53611 z"/><path id="path4284-5-6-2-0" fill="url(#linearGradient4498)" stroke-linecap="round" stroke-width="2" d="m 40.890625,32.15625 0,3.84375 6.65625,0 -6.65625,-3.84375 z" transform="matrix(1.0909096 0 0 1.0909096 371.48052 497.25255)"/><path id="path4284-5-6-2-6" fill="url(#linearGradient4496)" stroke-linecap="round" stroke-width="2" d="m 53.320312,27.787109 0,8.212891 0.916016,0 6.654297,-3.841797 -7.570313,-4.371094 z" transform="matrix(1.0909096 0 0 1.0909096 349.66233 497.25255)"/><path id="path4284-5-6-2-6-50" fill="url(#linearGradient4492)" stroke-linecap="round" stroke-width="2" d="M 25.75,32.158203 25.75,36 32.404297,36 25.75,32.158203 Z" transform="matrix(1.0909096 0 0 1.0909096 371.48052 497.25255)"/><path id="path4284-5-6-2-0-6" fill="url(#linearGradient4490)" stroke-linecap="round" stroke-width="2" d="M 40.890625,32.15625 34.234375,36 l 6.65625,0 0,-3.84375 z" transform="matrix(1.0909096 0 0 1.0909096 371.48052 497.25255)"/><path id="path4284-1" fill="#ffa92d" stroke-linecap="round" stroke-width="2" d="m 399.53737,522.87024 33.03408,-19.07223 -2e-5,9.31712 z"/></g><rect id="rect4321" width="6" height="4" x="397.571" y="540.798" fill="url(#linearGradient4346)"/><rect id="rect4323" width="12" height="1" x="394.571" y="544.798" fill="#99a1a7"/><path id="path4165" fill="url(#linearGradient4173)" fill-rule="evenodd" d="m 385.57143,536.79801 4,4 27,0 0,-21 -1,-1 0,18 z" opacity=".2"/><path id="rect4319" fill="url(#linearGradient4338)" d="m 384.57143,517.79801 0,23 32,0 0,-23 -32,0 z m 1,1 30,0 0,18 -30,0 0,-18 z"/><flowRoot id="flowRoot4170" font-family="sans-serif" font-size="10" line-height="125%" transform="matrix(1 0 0 1 389.57142 520.79806)"><flowRegion id="flowRegion4172"><rect id="rect4174" width="27" height="15" x="22" y="3"/></flowRegion><flowPara id="flowPara4176">Plasm</flowPara></flowRoot><path id="path4268" fill="url(#linearGradient4279)" fill-rule="evenodd" d="M 16 5 L 16 6 L 15 6 L 14 7 L 13 8 L 13 12 L 11 12 L 11 19 L 17 25 L 27 25 L 32 25 L 32 20 L 18 6 L 16 5 z" opacity=".2" transform="matrix(1 0 0 1 384.57143 515.798)"/><path id="rect4136-1" fill="url(#linearGradient4479)" d="m 16,5 c -1.662,0 -3,1.338 -3,3 l 0,1 0,3 -1,0 -1,0 0,0.75 0,6.25 10,0 0,-7 -2,0 0,-4 C 19,6.338 17.662,5 16,5 Z m 0,1 c 1.2465,0 2,0.5458 2,2 l 0,4 -3,0 -1,0 0,-3 0,-1 c 0,-1.4542 0.75351,-2 2,-2 z m -4,7 8,0 0,5 -8,0 z" transform="matrix(1 0 0 1 384.57143 515.798)"/></g></svg>