<svg xmlns="http://www.w3.org/2000/svg" xmlns:xlink="http://www.w3.org/1999/xlink" width="32" height="32" version="1.1" viewBox="0 0 32 32"><defs id="defs5455"><linearGradient id="linearGradient4204"><stop id="stop4182" stop-color="#a82936"/><stop id="stop4184" offset="1" stop-color="#da4453"/></linearGradient><linearGradient id="linearGradient4177"><stop id="stop4174" stop-color="#da4453"/><stop id="stop4176" offset="1" stop-color="#da4453"/></linearGradient><linearGradient id="linearGradient4185" x2="0" y1="525.798" y2="545.798" gradientUnits="userSpaceOnUse" xlink:href="#linearGradient4204"/><linearGradient id="linearGradient4202" x2="0" y1="10" y2="5" gradientTransform="matrix(1 0 0 1 384.57143 518.798)" gradientUnits="userSpaceOnUse" xlink:href="#linearGradient4177"/><linearGradient id="linearGradient4219" x1="389.571" x2="405.571" y1="527.798" y2="543.798" gradientUnits="userSpaceOnUse" xlink:href="#linearGradient4410"/><linearGradient id="linearGradient4303"><stop id="stop4305" stop-color="#c6cdd1"/><stop id="stop4307" offset="1" stop-color="#e0e5e7"/></linearGradient><linearGradient id="linearGradient4410"><stop id="stop4412" stop-color="#383e51"/><stop id="stop4414" offset="1" stop-color="#655c6f" stop-opacity="0"/></linearGradient><linearGradient id="linearGradient4340" x2="0" y1="17" y2="12" gradientUnits="userSpaceOnUse" xlink:href="#linearGradient4303"/><linearGradient id="linearGradient4348" x2="0" y1="532.798" y2="527.798" gradientUnits="userSpaceOnUse" xlink:href="#linearGradient4303"/><linearGradient id="linearGradient4352" x1="389.571" x2="405.571" y1="527.798" y2="543.798" gradientTransform="matrix(1 0 0 1 -368.57143 -515.798)" gradientUnits="userSpaceOnUse" xlink:href="#linearGradient4410"/></defs><metadata id="metadata5458"/><g id="layer1" transform="matrix(1 0 0 1 -384.57143 -515.798)"><path id="rect4357" fill="#4d4d4d" stroke-linecap="square" stroke-width=".1" d="M 11 2 C 9.3379853 2 8 3.3379853 8 5 L 8 8 C 8 9.3090942 8.835301 10.406795 10 10.818359 L 10 5 C 10 4.4459854 10.445985 4 11 4 L 21 4 C 21.554015 4 22 4.4459854 22 5 L 22 10.818359 C 23.164699 10.406795 24 9.3090942 24 8 L 24 5 C 24 3.3379853 22.662015 2 21 2 L 11 2 z" transform="matrix(1 0 0 1 384.57143 515.798)"/><rect id="rect4177" width="32" height="18" x="384.571" y="527.798" fill="url(#linearGradient4185)" stroke-linecap="square" stroke-width=".1" rx="0"/><path id="path4189" fill="url(#linearGradient4202)" fill-rule="evenodd" d="m 387.57143,523.798 -3,2 0,3 3,0 26,0 3,0 0,-3 -3,-2 -26,0 z"/><path id="path4211" fill="url(#linearGradient4219)" fill-rule="evenodd" d="m 389.57143,532.798 0,-5 5,0 18,18 -4.99996,0 -2.00004,0 -3,0 z" opacity=".2"/><path id="path4350" fill="url(#linearGradient4352)" fill-rule="evenodd" d="M 21 12 L 21 17 L 32 28 L 32 18 L 26 12 L 21 12 z" opacity=".2" transform="matrix(1 0 0 1 384.57143 515.798)"/><path id="path4209" fill="url(#linearGradient4348)" stroke-linecap="square" stroke-width=".1" d="m 405.57143,527.798 0,5 5,0 0,-5 -5,0 z m 1,1 3,0 0,3 -3,0 0,-3 z"/><rect id="rect4187" width="32" height="1" x="384.571" y="544.798" fill="#aa2a37" stroke-linecap="square" stroke-width=".1"/><path id="rect4204" fill="url(#linearGradient4340)" stroke-linecap="square" stroke-width=".1" d="M 5 12 L 5 17 L 10 17 L 10 12 L 5 12 z M 6 13 L 9 13 L 9 16 L 6 16 L 6 13 z" transform="matrix(1 0 0 1 384.57143 515.798)"/></g></svg>