<svg xmlns="http://www.w3.org/2000/svg" xmlns:svg="http://www.w3.org/2000/svg" id="svg2" width="64" height="64" version="1.1" viewBox="0 0 64 64"><metadata id="metadata5458"/><g id="layer1" transform="translate(-384.57143,-483.798)"><g id="g4169" transform="matrix(1.8832479,0,0,1.8832479,-337.80388,-486.24409)"><path id="rect4357" fill="#34be5b" fill-opacity="1" stroke-linecap="square" stroke-width=".1" d="M 11,2 C 9.3379853,2 8,3.3379853 8,5 L 8,8 C 8,9.3090942 8.835301,7.6023376 10,8.013902 L 10,5 c 0,-0.5540146 0.445985,-1 1,-1 l 10,0 c 0.554015,0 1,0.4459854 1,1 l 0,3.061841 C 23.164699,7.650277 24,9.3090942 24,8 L 24,5 C 24,3.3379853 22.662015,2 21,2 Z" transform="translate(384.57143,515.798)"/><rect id="rect4177" width="32" height="18" x="384.571" y="527.866" fill="none" stroke="#34be5b" stroke-dasharray="none" stroke-linecap="square" stroke-miterlimit="4" stroke-opacity="1" stroke-width="1" rx="0"/><path id="path4189" fill="none" fill-rule="evenodd" stroke="#34be5b" stroke-opacity="1" d="m 387.57143,523.798 -3,2 0,3 3,0 26,0 3,0 0,-3 -3,-2 -26,0 z"/><path id="path4209" fill="#34be5b" fill-opacity="1" stroke-linecap="square" stroke-width=".1" d="m 405.57143,527.798 0,5 5,0 0,-5 -5,0 z m 1,1 3,0 0,3 -3,0 0,-3 z"/><path id="rect4204" fill="#34be5b" fill-opacity="1" stroke-linecap="square" stroke-width=".1" d="m 5,12 0,5 5,0 0,-5 -5,0 z m 1,1 3,0 0,3 -3,0 0,-3 z" transform="translate(384.57143,515.798)"/><g id="flowRoot4161" fill="#34be5b" fill-opacity="1" stroke="none" stroke-linecap="butt" stroke-linejoin="miter" stroke-opacity="1" stroke-width="1" font-family="sans-serif" font-size="40" font-style="normal" font-weight="normal" letter-spacing="0" transform="matrix(0.41528143,0,0,0.41528143,402.70624,530.86386)" word-spacing="0" style="line-height:125%"><path id="path4234" d="M -5.140625,29.276216 Q -7.8164062,24.608248 -15.960938,19.881685 -19.75,17.674654 -19.75,14.198091 q 0,-1.464843 0.527344,-2.8125 0.546875,-1.347656 1.621094,-2.4023433 1.035156,-1.015625 2.382812,-1.6015625 1.269531,-0.546875 2.773437,-0.546875 1.503907,0 2.773438,0.546875 1.328125,0.5664062 2.3828125,1.6015625 1.0351563,1.015625 1.5820313,2.3632813 0.5664062,1.328125 0.5664062,2.851562 0,-1.523437 0.546875,-2.851562 0.5664063,-1.3476563 1.6015625,-2.3632813 1.0546875,-1.0351563 2.3828125,-1.6015625 1.26953125,-0.546875 2.7734375,-0.546875 1.5039063,0 2.7734375,0.546875 1.3476562,0.5859375 2.3828125,1.6015625 1.0742188,1.0546873 1.6015625,2.4023433 0.546875,1.347657 0.546875,2.8125 0,3.515625 -3.7890625,5.683594 -8.1445313,4.726563 -10.8203125,9.394531 z"/></g></g></g></svg>