<svg xmlns="http://www.w3.org/2000/svg" xmlns:xlink="http://www.w3.org/1999/xlink" width="48" height="48"><defs><linearGradient id="a" x2="0" y1="543.8" y2="512.8" gradientUnits="userSpaceOnUse"><stop stop-color="#cea476"/><stop offset="1" stop-color="#dab58b"/></linearGradient><linearGradient id="b" x2="0" y1="512.8" y2="503.8" gradientUnits="userSpaceOnUse"><stop stop-color="#ebc69a"/><stop offset="1" stop-color="#f4e0c8" stop-opacity="0"/></linearGradient><linearGradient id="c" x2="0" y1="512.8" y2="503.8" gradientTransform="translate(0-1025.6)" gradientUnits="userSpaceOnUse" xlink:href="#b"/><linearGradient id="d" x2="0" y1="512.8" y2="503.8" gradientUnits="userSpaceOnUse" xlink:href="#a"/><linearGradient id="e" x1="399.57" x2="417.57" y1="516.8" y2="534.8" gradientUnits="userSpaceOnUse"><stop stop-color="#292c2f"/><stop offset="1" stop-opacity="0"/></linearGradient></defs><g transform="translate(-384.57-499.8)"><rect width="40" height="31" x="388.57" y="512.8" fill="url(#a)" stroke-opacity=".55" stroke-width="2.8"/><path fill="url(#d)" fill-rule="evenodd" d="m388.57 512.8l6-9h29l5 9z"/><g stroke-opacity=".55" stroke-width="2.8"><path fill="#f4e0c8" d="m21 4v40l1-1 1 1 1-1 1 1 1-1 1 1v-40z" transform="translate(384.57 499.8)"/><rect width="6" height="9" x="405.57" y="503.8" fill="url(#b)"/><rect width="6" height="9" x="405.57" y="-521.8" fill="url(#c)" transform="scale(1-1)"/><path fill="#5c4c3e" d="m5 35v8h8v-8zm1 1h6v6h-6zm1 1v1h1v-1zm2 0v2h2v-2zm-2 2v2h1v-2zm2 1v1h2v-1z" transform="translate(384.57 499.8)"/></g><path fill="url(#e)" fill-rule="evenodd" d="m411.57 512.8l17 17v14h-17z" opacity=".2"/><rect width="40" height="1" x="388.57" y="542.8" fill="#9f8569" stroke-opacity=".55" stroke-width="2.8"/></g></svg>