<svg xmlns="http://www.w3.org/2000/svg" xmlns:xlink="http://www.w3.org/1999/xlink" width="32" height="32" version="1.1"><defs id="defs5455"><linearGradient id="linearGradient4159"><stop id="stop4161" stop-color="#2a2c2f"/><stop id="stop4163" offset="1" stop-color="#424649"/></linearGradient><linearGradient id="linearGradient4303"><stop id="stop4305" stop-color="#c6cdd1"/><stop id="stop4307" offset="1" stop-color="#e0e5e7"/></linearGradient><linearGradient id="linearGradient4338" x2="0" y1="538.798" y2="519.798" gradientTransform="matrix(1 0 0 1.2105271 -3.00004 -111.43158)" gradientUnits="userSpaceOnUse" xlink:href="#linearGradient4159"/><linearGradient id="linearGradient4346" x2="0" y1="542.798" y2="538.798" gradientTransform="matrix(1 0 0 1 -0.000073 2)" gradientUnits="userSpaceOnUse" xlink:href="#linearGradient4303"/><linearGradient id="linearGradient4159-2"><stop id="stop4161-3" stop-color="#1d1e1e"/><stop id="stop4163-3" offset="1" stop-color="#44484c"/></linearGradient><linearGradient id="linearGradient4288"><stop id="stop4290" stop-color="#e81877"/><stop id="stop4294-9" offset=".312" stop-color="#dd1d8c"/><stop id="stop4296" offset=".562" stop-color="#6d57b1"/><stop id="stop4298" offset=".75" stop-color="#2a78c1"/><stop id="stop4292-2" offset="1" stop-color="#018dcb"/></linearGradient><clipPath id="clipPath4534"><rect id="rect4536" width="32" height="32" x="8" y="8" rx="16"/></clipPath><linearGradient id="linearGradient4300"><stop id="stop4302" stop-color="#e51561"/><stop id="stop4304" offset=".312" stop-color="#e4156c"/><stop id="stop4306" offset=".562" stop-color="#e71e2c"/><stop id="stop4308" offset=".75" stop-color="#e8301e"/><stop id="stop4310" offset="1" stop-color="#e6320e"/></linearGradient><clipPath id="clipPath4584"><rect id="rect4586" width="32" height="32" x="392.571" y="507.798" rx="16"/></clipPath><linearGradient id="linearGradient4328"><stop id="stop4330" stop-color="#bec900"/><stop id="stop4332" offset=".312" stop-color="#9ec80a"/><stop id="stop4334" offset=".562" stop-color="#71b93d"/><stop id="stop4336" offset=".75" stop-color="#35a48f"/><stop id="stop4338" offset="1" stop-color="#018fca"/></linearGradient><clipPath id="clipPath4550"><rect id="rect4552" width="32" height="32" x="392.571" y="507.798" rx="16"/></clipPath><linearGradient id="linearGradient4316"><stop id="stop4318" stop-color="#c1cc00"/><stop id="stop4320" offset=".312" stop-color="#dfcd00"/><stop id="stop4322" offset=".562" stop-color="#f0cc00"/><stop id="stop4324" offset=".75" stop-color="#fd8c08"/><stop id="stop4326" offset="1" stop-color="#f25c13"/></linearGradient><clipPath id="clipPath4568"><rect id="rect4570" width="32" height="32" x="392.571" y="507.798" rx="16"/></clipPath><clipPath id="clipPath4528"><rect id="rect4530" width="32" height="32" x="8" y="8" rx="16"/></clipPath><clipPath id="clipPath4578"><rect id="rect4580" width="32" height="32" x="392.571" y="507.798" rx="16"/></clipPath><clipPath id="clipPath4562"><rect id="rect4564" width="32" height="32" x="392.571" y="507.798" rx="16"/></clipPath><clipPath id="clipPath4544"><rect id="rect4546" width="32" height="32" x="392.571" y="507.798" rx="16"/></clipPath><clipPath id="clipPath3240"><rect id="rect3242" width="32" height="32" x="8" y="8" rx="16"/></clipPath><clipPath id="clipPath3257"><rect id="rect3259" width="32" height="32" x="392.571" y="507.798" rx="16"/></clipPath><linearGradient id="linearGradient4487" x1="8" x2="24" y1="24" y2="8" gradientTransform="matrix(-1 0 0 -1 432.57143 547.798)" gradientUnits="userSpaceOnUse" xlink:href="#linearGradient4316"/><clipPath id="clipPath3274"><rect id="rect3276" width="32" height="32" x="392.571" y="507.798" rx="16"/></clipPath><linearGradient id="linearGradient4489" x1="8" x2="24" y1="24" y2="8" gradientTransform="matrix(-1 0 0 1 432.57143 499.798)" gradientUnits="userSpaceOnUse" xlink:href="#linearGradient4328"/><clipPath id="clipPath3291"><rect id="rect3293" width="32" height="32" x="392.571" y="507.798" rx="16"/></clipPath><linearGradient id="linearGradient4274" x1="8" x2="24" y1="24" y2="8" gradientUnits="userSpaceOnUse" xlink:href="#linearGradient4288"/><clipPath id="clipPath4528-1"><rect id="rect4530-7" width="32" height="32" x="8" y="8" rx="16"/></clipPath><linearGradient id="linearGradient4278" x1="8" x2="24" y1="24" y2="8" gradientTransform="matrix(1 0 0 -1 384.57143 547.798)" gradientUnits="userSpaceOnUse" xlink:href="#linearGradient4300"/><clipPath id="clipPath4578-8"><rect id="rect4580-7" width="32" height="32" x="392.571" y="507.798" rx="16"/></clipPath><clipPath id="clipPath4562-8"><rect id="rect4564-8" width="32" height="32" x="392.571" y="507.798" rx="16"/></clipPath><clipPath id="clipPath4544-1"><rect id="rect4546-1" width="32" height="32" x="392.571" y="507.798" rx="16"/></clipPath><linearGradient id="linearGradient4227"><stop id="stop4229" stop-color="#292c2f"/><stop id="stop4231" offset="1" stop-opacity="0"/></linearGradient><linearGradient id="linearGradient4303-6"><stop id="stop4305-1" stop-color="#989a9b"/><stop id="stop4307-1" offset="1" stop-color="#f6f6f7"/></linearGradient><linearGradient id="linearGradient3878" x1="394.571" x2="408.571" y1="525.798" y2="539.798" gradientTransform="matrix(1 0 0 1 -0.00001 0.00003)" gradientUnits="userSpaceOnUse" xlink:href="#linearGradient4227"/><linearGradient id="linearGradient3880" x2="0" y1="543.798" y2="503.798" gradientTransform="matrix(0.20000006 0 0 0.20000014 318.85709 -636.55773)" gradientUnits="userSpaceOnUse" xlink:href="#linearGradient4159"/><linearGradient id="linearGradient3882" x2="0" y1="524.798" y2="522.798" gradientTransform="matrix(1 0 0 1 -8.00001 8.00003)" gradientUnits="userSpaceOnUse" xlink:href="#linearGradient4303-6"/><linearGradient id="linearGradient5138" x1="8" x2="23.895" y1="24" y2="8.139" gradientTransform="matrix(-1 0 0 1 432.57143 499.798)" gradientUnits="userSpaceOnUse" xlink:href="#linearGradient4328"/><linearGradient id="linearGradient5141" x1="17.508" x2="23.895" y1="22.976" y2="8.139" gradientTransform="matrix(-1 0 0 1 432.57143 499.798)" gradientUnits="userSpaceOnUse" xlink:href="#linearGradient4328"/><linearGradient id="linearGradient4149-9" x2="0" y1="545.798" y2="517.798" gradientTransform="matrix(1 0 0 1 0.000145 0.000574)" gradientUnits="userSpaceOnUse" xlink:href="#linearGradient4159-2"/><clipPath id="clipPath4534-6"><rect id="rect4536-6" width="32" height="32" x="8" y="8" rx="16"/></clipPath><clipPath id="clipPath4584-3"><rect id="rect4586-5" width="32" height="32" x="392.571" y="507.798" rx="16"/></clipPath><clipPath id="clipPath4550-1"><rect id="rect4552-7" width="32" height="32" x="392.571" y="507.798" rx="16"/></clipPath><clipPath id="clipPath4568-1"><rect id="rect4570-6" width="32" height="32" x="392.571" y="507.798" rx="16"/></clipPath><clipPath id="clipPath4528-10"><rect id="rect4530-8" width="32" height="32" x="8" y="8" rx="16"/></clipPath><filter id="filter4390-0" width="1.12" height="1.12" x="-.06" y="-.06" color-interpolation-filters="sRGB"><feGaussianBlur id="feGaussianBlur4392-3" stdDeviation=".4"/></filter><clipPath id="clipPath4578-4"><rect id="rect4580-9" width="32" height="32" x="392.571" y="507.798" rx="16"/></clipPath><clipPath id="clipPath4562-1"><rect id="rect4564-87" width="32" height="32" x="392.571" y="507.798" rx="16"/></clipPath><clipPath id="clipPath4544-4"><rect id="rect4546-8" width="32" height="32" x="392.571" y="507.798" rx="16"/></clipPath><clipPath id="clipPath3240-7"><rect id="rect3242-5" width="32" height="32" x="8" y="8" rx="16"/></clipPath><clipPath id="clipPath3257-9"><rect id="rect3259-8" width="32" height="32" x="392.571" y="507.798" rx="16"/></clipPath><clipPath id="clipPath3274-1"><rect id="rect3276-9" width="32" height="32" x="392.571" y="507.798" rx="16"/></clipPath><clipPath id="clipPath3291-1"><rect id="rect3293-3" width="32" height="32" x="392.571" y="507.798" rx="16"/></clipPath><clipPath id="clipPath4528-1-3"><rect id="rect4530-7-9" width="32" height="32" x="8" y="8" rx="16"/></clipPath><clipPath id="clipPath4578-8-5"><rect id="rect4580-7-9" width="32" height="32" x="392.571" y="507.798" rx="16"/></clipPath><clipPath id="clipPath4562-8-9"><rect id="rect4564-8-6" width="32" height="32" x="392.571" y="507.798" rx="16"/></clipPath><clipPath id="clipPath4544-1-9"><rect id="rect4546-1-1" width="32" height="32" x="392.571" y="507.798" rx="16"/></clipPath><linearGradient id="linearGradient4499" x1="394.571" x2="408.571" y1="525.798" y2="539.798" gradientTransform="matrix(1 0 0 1 38.999998 -0.228885)" gradientUnits="userSpaceOnUse" xlink:href="#linearGradient4227"/><linearGradient id="linearGradient4314" x2="0" y1="543.798" y2="503.798" gradientTransform="matrix(0.20000006 0 0 0.20000014 357.8571 -636.32881)" gradientUnits="userSpaceOnUse" xlink:href="#linearGradient4159"/><linearGradient id="linearGradient4917" x2="0" y1="524.798" y2="522.798" gradientTransform="matrix(1 0 0 1 30.999998 7.771115)" gradientUnits="userSpaceOnUse" xlink:href="#linearGradient4303-6"/><linearGradient id="linearGradient3390" x2="0" y1="545.798" y2="517.798" gradientTransform="matrix(1 0 0 1 39.00014 -0.228315)" gradientUnits="userSpaceOnUse" xlink:href="#linearGradient4159-2"/><linearGradient id="linearGradient4383" x1="8.457" x2="24.105" y1="23.998" y2="8.236" gradientUnits="userSpaceOnUse" xlink:href="#linearGradient4288"/><linearGradient id="linearGradient4389" x1="8.192" x2="24.062" y1="24.135" y2="8.233" gradientTransform="matrix(-1 0 0 1 432.57143 499.798)" gradientUnits="userSpaceOnUse" xlink:href="#linearGradient4328"/><linearGradient id="linearGradient4420" x1="8.323" x2="23.943" y1="23.961" y2="8.255" gradientTransform="matrix(1 0 0 -1 384.57143 547.798)" gradientUnits="userSpaceOnUse" xlink:href="#linearGradient4300"/><linearGradient id="linearGradient4422" x1="8" x2="24.272" y1="24" y2="8.385" gradientTransform="matrix(-1 0 0 -1 432.57143 547.798)" gradientUnits="userSpaceOnUse" xlink:href="#linearGradient4316"/><linearGradient id="linearGradient4424" x1="8" x2="24.042" y1="24" y2="8.469" gradientTransform="matrix(-1 0 0 1 432.57143 499.798)" gradientUnits="userSpaceOnUse" xlink:href="#linearGradient4328"/><linearGradient id="linearGradient4430" x1="8.255" x2="24.093" y1="24.161" y2="8.402" gradientUnits="userSpaceOnUse" xlink:href="#linearGradient4288"/><linearGradient id="linearGradient4432" x1="7.49" x2="24" y1="23.598" y2="8" gradientTransform="matrix(1 0 0 -1 384.57143 547.798)" gradientUnits="userSpaceOnUse" xlink:href="#linearGradient4300"/><linearGradient id="linearGradient4434" x1="8.371" x2="24" y1="24.121" y2="8" gradientTransform="matrix(-1 0 0 -1 432.57143 547.798)" gradientUnits="userSpaceOnUse" xlink:href="#linearGradient4316"/><linearGradient id="linearGradient4436" x1="8.394" x2="24.139" y1="24.08" y2="8.362" gradientTransform="matrix(-1 0 0 1 432.57143 499.798)" gradientUnits="userSpaceOnUse" xlink:href="#linearGradient4328"/><linearGradient id="linearGradient4442" x1="8.273" x2="24.149" y1="24.302" y2="8.377" gradientUnits="userSpaceOnUse" xlink:href="#linearGradient4288"/><linearGradient id="linearGradient4444" x1="8.385" x2="24" y1="24.353" y2="8" gradientTransform="matrix(1 0 0 -1 384.57143 547.798)" gradientUnits="userSpaceOnUse" xlink:href="#linearGradient4300"/><linearGradient id="linearGradient4446" x1="8.125" x2="23.775" y1="24.159" y2="8.481" gradientTransform="matrix(-1 0 0 1 432.57143 499.798)" gradientUnits="userSpaceOnUse" xlink:href="#linearGradient4328"/><linearGradient id="linearGradient4448" x1="8.233" x2="24" y1="24.063" y2="8" gradientTransform="matrix(-1 0 0 -1 432.57143 547.798)" gradientUnits="userSpaceOnUse" xlink:href="#linearGradient4316"/><linearGradient id="linearGradient4454" x1="8.059" x2="23.775" y1="23.328" y2="8.372" gradientUnits="userSpaceOnUse" xlink:href="#linearGradient4288"/></defs><metadata id="metadata5458"/><g id="layer1" transform="matrix(1 0 0 1 -384.57143 -515.798)"><path id="rect4263" fill="url(#linearGradient4442)" d="m 24.158928,10.831747 c -5.837713,1.53486 -13.605442,3.705635 -14.131617,4.661751 -0.1728637,0.31411 1.223972,5.805379 1.849194,8.467563 L 24,24 z" clip-path="url(#clipPath4534-6)" transform="matrix(1.3024389 0.20100866 -0.34898744 0.75017448 377.68857 504.96961)"/><path id="path4276" fill="url(#linearGradient4444)" d="m 408.57143,539.798 c -3.7341,0 -6.8603,1.4262 -7.90925,-1.5963 -1.32126,-3.80713 -3.05254,-10.43306 -4.19867,-15.27995 l 12.10792,0.87625 z" clip-path="url(#clipPath4584-3)" transform="matrix(1.3024389 0.20100866 -0.34898744 0.75017448 51.231 52.73172)"/><path id="path4280" fill="url(#linearGradient4446)" d="m 408.54971,510.76147 c 3.70873,-0.72959 7.3878,-2.07765 7.72186,-1.76734 0.57403,0.53321 3.20442,10.67753 4.54939,15.85046 L 408.57143,523.798 z" clip-path="url(#clipPath4550-1)" transform="matrix(1.3024389 0.20100866 -0.34898744 0.75017448 51.231 52.73172)"/><path id="path4282" fill="url(#linearGradient4448)" d="m 408.57143,539.798 c 6.64535,0 13.34432,-4.5952 14.09629,-6.91921 0.31127,-0.96198 -1.84782,-6.35682 -1.84782,-8.57545 L 408.57143,523.798 z" clip-path="url(#clipPath4568-1)" transform="matrix(1.3024389 0.20100866 -0.34898744 0.75017448 51.231 52.73172)"/><path id="path4340" fill="url(#linearGradient4430)" d="m 23.930472,11.460429 c -5.762171,0 -10.77965,-0.525717 -11.289049,0.407759 -0.331008,0.606573 -0.261179,8.426428 -0.261179,11.528249 L 24,24 z" clip-path="url(#clipPath4528-10)" filter="url(#filter4390-0)" opacity=".7" transform="matrix(1.3483839 0 0 0.77663776 368.21016 509.15868)"/><path id="path4394" fill="url(#linearGradient4432)" d="m 408.57143,539.798 c -5.95583,0 -10.94446,2.64808 -11.4642,-4.12184 -0.10411,-1.35619 0.007,-8.68834 0.007,-11.5965 l 11.45752,-0.28166 z" clip-path="url(#clipPath4578-4)" filter="url(#filter4390-0)" opacity=".7" transform="matrix(1.3483839 0 0 0.77663776 -150.33976 120.99668)"/><path id="path4416" fill="url(#linearGradient4434)" d="m 408.57143,539.798 c 8.86399,0 11.66611,-7.05553 11.66611,-15.91952 l -11.66611,-0.0805 z" clip-path="url(#clipPath4562-1)" filter="url(#filter4390-0)" opacity=".7" transform="matrix(1.3483839 0 0 0.77663776 -150.33976 120.99668)"/><path id="path4486" fill="url(#linearGradient4436)" d="m 408.64096,511.29867 c 8.86399,0 11.59658,3.47439 11.59658,12.33838 l -11.66611,0.16095 z" clip-path="url(#clipPath4544-4)" filter="url(#filter4390-0)" opacity=".7" transform="matrix(1.3483839 0 0 0.77663776 -150.33976 120.99668)"/><path id="path4320" fill="url(#linearGradient4383)" d="M 23.961295,7.4696601 C 17.33869,11.317054 11.667622,19.491919 7.6205681,23.9811 L 24,24 z" clip-path="url(#clipPath4528-10)" opacity=".35" transform="matrix(0.9534514 0.54916582 -0.9534514 0.54916582 400.57141 501.43805)"/><path id="path4322" fill="url(#linearGradient4278)" d="m 408.57143,539.798 c -7.33708,-7.38807 -11.38477,-11.2391 -16,-16 l 16,0 z" clip-path="url(#clipPath4578-4)" opacity=".35" transform="matrix(0.9534514 0.54916582 -0.9534514 0.54916582 510.43435 15.772569)"/><path id="path4324" fill="url(#linearGradient4487)" d="m 408.57143,539.798 c 8.86399,0 16,-7.13601 16,-16 l -16,0 0,16 z" clip-path="url(#clipPath4562-1)" opacity=".35" transform="matrix(0.9534514 0.54916582 -0.9534514 0.54916582 510.43435 15.772569)"/><path id="path4326" fill="url(#linearGradient4389)" d="m 408.57143,507.798 c 6.40862,5.86964 9.83628,9.65784 16,16 l -16,0 z" clip-path="url(#clipPath4544-4)" opacity=".35" transform="matrix(0.9534514 0.54916582 -0.9534514 0.54916582 510.43435 15.772569)"/><path id="path4340-7" fill="url(#linearGradient4454)" d="m 23.979056,11.809347 c -3.283282,-0.916015 -8.667038,-2.1040181 -8.77317,-1.710602 -0.779697,2.890225 -3.997225,8.373606 -3.997225,13.897249 L 24,24 z" clip-path="url(#clipPath4528-1-3)" opacity=".3" transform="matrix(0.34898744 0.75017448 -1.3024389 0.20100866 423.45419 504.96961)"/><path id="path4394-4" fill="url(#linearGradient4420)" d="m 409.10676,535.93453 c -7.81888,-2.05806 -14.67041,-4.03664 -14.90474,-4.53859 -0.3514,-0.7527 1.41061,-5.23061 1.41061,-7.59883 l 12.9588,8.9e-4 z" clip-path="url(#clipPath4578-8-5)" opacity=".3" transform="matrix(0.34898744 0.75017448 -1.3024389 0.20100866 940.19995 116.01022)"/><path id="path4416-6" fill="url(#linearGradient4422)" d="m 408.74809,535.71846 c 1.99491,0 6.5348,2.42445 8.27914,2.08346 6.00631,-1.17412 7.5442,-7.13484 7.5442,-14.00392 l -16,0 z" clip-path="url(#clipPath4562-8-9)" opacity=".3" transform="matrix(0.34898744 0.75017448 -1.3024389 0.20100866 940.19995 116.01022)"/><path id="path4486-5" fill="url(#linearGradient4424)" d="m 408.54137,511.79685 c 4.88949,1.31028 14.03815,3.68028 14.79044,4.2446 2.19289,1.64498 1.23962,3.89791 1.23962,7.75655 l -16,0 z" clip-path="url(#clipPath4544-1-9)" opacity=".3" transform="matrix(0.34898744 0.75017448 -1.3024389 0.20100866 940.19995 116.01022)"/><rect id="rect4321" width="6" height="4" x="397.571" y="540.798" fill="url(#linearGradient4346)"/><rect id="rect4323" width="12" height="1" x="394.571" y="544.798" fill="#99a1a7"/><path id="rect4319" fill="url(#linearGradient4338)" d="m 384.57143,517.798 0,23 32,0 0,-23 -32,0 z m 1,1 30,0 0,18 -30,0 0,-18 z"/></g></svg>