<svg xmlns="http://www.w3.org/2000/svg" xmlns:svg="http://www.w3.org/2000/svg" id="svg2" width="64" height="64" version="1.1" viewBox="0 0 64 64"><metadata id="metadata12"/><defs id="defs3051"><style id="current-color-scheme" type="text/css">.ColorScheme-Text{color:#4d4d4d}</style></defs><a id="a6" transform="matrix(1.3686441,0,0,1.3686441,-3.0550847,36.944915)"><path id="path8" fill="#34be5b" fill-opacity="1" stroke="none" d="m 8.1253862,-25.136223 -1.4292763,2.606328 -2.6063274,1.429276 2.6063274,1.429277 1.4292763,2.606327 1.4292763,-2.606327 2.6063275,-1.429277 -2.6063275,-1.429276 -1.4292763,-2.606328 z m 13.4520118,0 -1.429276,2.606328 -2.606327,1.429276 2.606327,1.429277 1.429276,2.606327 1.429277,-2.606327 2.606327,-1.429277 -2.606327,-1.429276 -1.429277,-2.606328 z m 17.950029,0 -35.4376445,35.437645 7.6087945,7.608795 35.437644,-35.437645 -7.608794,-7.608795 z m -0.183916,3.988312 3.804396,3.804398 -8.333941,8.3391962 -3.809653,-3.8096522 8.339198,-8.333942 z m -25.83732,6.773299 -1.429276,2.606327 -2.6063276,1.429276 2.6063276,1.4292766 1.429276,2.6063273 1.429276,-2.6063273 2.606328,-1.4292766 -2.606328,-1.429276 -1.429276,-2.606327 z" class="ColorScheme-Text" color="#4d4d4d"/></a></svg>