<svg xmlns="http://www.w3.org/2000/svg" xmlns:svg="http://www.w3.org/2000/svg" id="svg2" width="64" height="64" version="1.1" viewBox="0 0 64 64"><metadata id="metadata84"/><rect id="rect4236" width="44" height="1" x="10" y="3" fill="#fff" fill-opacity=".41"/><g id="g4140" transform="matrix(1.1204552,0,0,1.1204552,2.1454354,-3.8545646)"><path color="#000" style="isolation:auto;mix-blend-mode:normal;solid-color:#000;solid-opacity:1" id="rect4224-3" fill="#34be5b" fill-opacity="1" fill-rule="nonzero" stroke-dasharray="none" stroke-dashoffset="0" stroke-linecap="butt" stroke-linejoin="miter" stroke-miterlimit="4" stroke-opacity="1" stroke-width="1" d="m 0,35.101695 0,1 0,18 1,0 10,0 0,2 -3,0 0,1 3,0 4,0 3,0 0,-1 -3,0 0,-2 11,0 0,-2 0,-17 z m 1,1 24,0 0,16 -24,0 z" clip-rule="nonzero" color-interpolation="sRGB" color-interpolation-filters="linearRGB" color-rendering="auto" display="inline" enable-background="accumulate" image-rendering="auto" opacity="1" overflow="visible" shape-rendering="auto" text-rendering="auto" visibility="visible"/><path id="rect4232" fill="#34be5b" fill-opacity="1" d="m 13,37.940678 c -1.625335,0 -2.933818,1.308483 -2.933818,2.933818 l 0,2.933817 c 0,1.625335 1.308483,2.933818 2.933818,2.933818 1.625335,0 2.933818,-1.308483 2.933818,-2.933818 l 0,-2.933817 c 0,-1.625335 -1.308483,-2.933818 -2.933818,-2.933818 z m -2.347054,2.347054 1.76029,0 0,0.586764 -1.76029,0 0,-0.586764 z m 2.933818,0 1.76029,0 0,0.586764 -1.76029,0 0,-0.586764 z m -2.933818,1.760291 1.76029,0 0,0.586763 -1.76029,0 0,-0.586763 z m 2.933818,0 1.76029,0 0,0.586763 -1.76029,0 0,-0.586763 z m -2.933818,1.76029 1.76029,0 0,0.586764 -1.76029,0 0,-0.586764 z m 2.933818,0 1.76029,0 0,0.586764 -1.76029,0 0,-0.586764 z m -4.6482682,0.586764 c 0.256563,1.802643 1.6726982,3.218125 3.4747402,3.47474 l 0,0.632604 0.293382,0 0,1.173527 -0.880145,0 0,0.586764 0.880145,0 0.586764,0 0.880145,0 0,-0.586764 -0.880145,0 0,-1.173527 0.293382,0 0,-0.632604 c 1.802042,-0.256615 3.218177,-1.672097 3.47474,-3.47474 l -0.59364,0 C 16.189622,46.0637 14.750001,47.328894 13,47.328894 c -1.750001,0 -3.1896222,-1.265194 -3.4678642,-2.933817 l -0.59364,0 z" color="#000" color-interpolation="sRGB" color-interpolation-filters="linearRGB" color-rendering="auto" image-rendering="auto" shape-rendering="auto" text-rendering="auto"/></g><g id="g4148" transform="matrix(1.1204552,0,0,1.1204552,-9.8545646,-3.8545646)"><path id="rect4224-3-7" fill="#34be5b" fill-opacity="1" d="m 38,35.101695 0,1 0,18 1,0 10,0 0,2 -3,0 0,1 3,0 4,0 3,0 0,-1 -3,0 0,-2 11,0 0,-2 0,-17 z m 1,1 24,0 0,16 -24,0 z" color="#000" color-interpolation="sRGB" color-interpolation-filters="linearRGB" color-rendering="auto" image-rendering="auto" shape-rendering="auto" text-rendering="auto"/><path id="rect4132" fill="#34be5b" fill-opacity="1" d="m 55.322495,37.305085 -7.40965,7.409657 -0.002,0 0,2.476321 0.61787,0 1.23575,0 0.6227,0 0,-0.0024 7.40965,-7.409661 -0.001,-0.0012 0.001,-0.0012 -2.47149,-2.471494 -10e-4,0.0012 -0.001,-0.0012 z m -1.23454,2.108252 1.6002,1.600196 -4.68836,4.688358 0,-0.982322 -0.61787,0 -0.61788,0 0,-0.617874 0,-0.364449 4.32391,-4.323909 z m -4.94178,4.941783 0,0.982322 0.61787,0 0.61788,0 0,0.617874 0,0.364449 -0.25343,0.253425 -0.98232,0 -0.61787,-0.617874 0,-0.982323 0.61787,-0.617873 z m -4.94299,2.21807 0,0.617873 0,3.089369 0,0.617873 12.97535,0 0.61787,0 0,-3.707242 0,-0.617873 -6.17874,0 0,0.617873 5.56087,0 0,3.089369 -1.85362,0 0,-0.617874 -0.61788,0 0,0.617874 -1.85362,0 0,-1.235748 -0.61787,0 0,1.235748 -2.4715,0 0,-0.617874 -0.61787,0 0,0.617874 -1.85362,0 0,-1.235748 -0.61788,0 0,1.235748 -1.85362,0 0,-3.089369 2.4715,0 0,-0.617873 -3.08937,0 z"/></g><g id="g4144" transform="matrix(1.1204552,0,0,1.1204552,-3.8545646,-3.8545646)"><path id="rect4224" fill="#34be5b" fill-opacity="1" d="m 19,6.8983051 0,1 0,17.9999999 1,0 10,0 0,2 -3,0 0,1 3,0 4,0 3,0 0,-1 -3,0 0,-2 11,0 0,-2 0,-16.9999999 z m 1,1 24,0 0,15.9999999 -24,0 z" color="#000" color-interpolation="sRGB" color-interpolation-filters="linearRGB" color-rendering="auto" image-rendering="auto" shape-rendering="auto" text-rendering="auto"/><path id="rect4170" fill="#34be5b" fill-opacity="1" d="m 29.966888,9.5084777 c -1.448167,0 -2.61402,1.1658533 -2.61402,2.6140203 0,1.448167 1.165853,2.61402 2.61402,2.61402 1.448168,0 2.614021,-1.165853 2.614021,-2.61402 0,-1.448167 -1.165853,-2.6140203 -2.614021,-2.6140203 z m 0,0.5808933 c 1.126353,0 2.033128,0.906774 2.033128,2.033127 0,1.126352 -0.906775,2.033126 -2.033128,2.033126 -1.126352,0 -2.033127,-0.906774 -2.033127,-2.033126 0,-1.126353 0.906775,-2.033127 2.033127,-2.033127 z m 6.099381,0.05786 c -0.965445,0 -1.74268,0.777236 -1.74268,1.74268 0,0.965446 0.777235,1.742681 1.74268,1.742681 0.965444,0 1.742679,-0.777235 1.742679,-1.742681 0,-0.965444 -0.777235,-1.74268 -1.742679,-1.74268 z m 0,0.580894 c 0.643629,0 1.161786,0.518157 1.161786,1.161786 0,0.643631 -0.518157,1.161788 -1.161786,1.161788 -0.64363,0 -1.161786,-0.518157 -1.161786,-1.161788 0,-0.643629 0.518156,-1.161786 1.161786,-1.161786 z m 0,4.008391 c -0.688822,0 -1.298618,0.302897 -1.723392,0.776038 a 5.2280409,5.2280409 0 0 1 0.408441,0.414113 c 0.319097,-0.370261 0.785574,-0.609258 1.314951,-0.609258 0.965444,0 1.742679,0.777236 1.742679,1.742681 l 0,2.323574 -1.742679,0 a 5.2280409,5.2280409 0 0 1 -0.0352,0.580892 l 1.777853,0 c 0.205009,0 0.398499,0.04106 0.580893,0.105514 l 0,-0.105514 0,-0.580892 0,-2.323574 c 0,-1.28726 -1.036314,-2.323574 -2.323573,-2.323574 z m -6.099381,0.580896 c -2.413612,0 -4.3567,1.94309 -4.3567,4.356701 l 0,2.033128 0,0.580893 0.580893,0 7.551615,0 0.580893,0 0,-0.580893 0,-2.033128 c 0,-2.413611 -1.943088,-4.356701 -4.356701,-4.356701 z m 0,0.63989 c 2.091798,0 3.775808,1.684011 3.775808,3.775808 l 0,1.974131 -7.551615,0 0,-1.974131 c 0,-2.091797 1.68401,-3.775808 3.775807,-3.775808 z" color="#000" color-interpolation="sRGB" color-interpolation-filters="linearRGB" color-rendering="auto" image-rendering="auto" shape-rendering="auto" text-rendering="auto"/></g></svg>