<svg xmlns="http://www.w3.org/2000/svg" xmlns:svg="http://www.w3.org/2000/svg" xmlns:xlink="http://www.w3.org/1999/xlink" id="svg2" width="921" height="722" fill="#000" fill-opacity="1" stroke="#000" stroke-dasharray="none" stroke-dashoffset="0" stroke-linecap="square" stroke-linejoin="miter" stroke-miterlimit="10" stroke-opacity="1" stroke-width="1" color-interpolation="auto" color-rendering="auto" font-family="'Dialog'" font-size="12" font-style="normal" font-weight="normal" image-rendering="auto" shape-rendering="auto" text-rendering="auto" version="1.1"><metadata id="metadata147"/><g id="g5"><g id="g11" shape-rendering="geometricPrecision" text-rendering="geometricPrecision" transform="matrix(1,0,0,1,20.7718,515.2813)"><g id="g13" clip-path="url(#clipPath3)"><svg id="svg1.svg2424" width="600" height="199.417" fill="#000" fill-opacity="1" fill-rule="nonzero" stroke="none" stroke-dasharray="none" stroke-dashoffset="0" stroke-linecap="butt" stroke-linejoin="miter" stroke-miterlimit="4" stroke-opacity="1" stroke-width="1" marker-end="none" marker-mid="none" marker-start="none" alignment-baseline="auto" baseline-shift="baseline" clip="auto" clip-path="none" clip-rule="nonzero" color="#000" color-interpolation="srgb" color-interpolation-filters="linearrgb" color-profile="auto" color-rendering="auto" cursor="auto" direction="ltr" display="inline" dominant-baseline="auto" enable-background="accumulate" filter="none" flood-color="#000" flood-opacity="1" font-family="&quot;Arial&quot;,&quot;Helvetica&quot;,sans-serif" font-size="12" font-size-adjust="none" font-stretch="normal" font-style="normal" font-variant="normal" font-weight="400" glyph-orientation-horizontal="0deg" glyph-orientation-vertical="auto" image-rendering="auto" kerning="auto" letter-spacing="normal" lighting-color="#FFF" mask="none" opacity="1" overflow="visible" pointer-events="visiblepainted" shape-rendering="auto" src="none" stop-color="#000" stop-opacity="1" text-anchor="start" text-decoration="none" text-rendering="auto" unicode-bidi="normal" version="1.0" visibility="visible" word-spacing="normal" writing-mode="lr-tb"><defs id="svg1.defs2426"><linearGradient id="svg1.path1082_2_" x1="112.499" x2="112.499" y1="6.137" y2="129.347" gradientTransform="translate(287,-83)" gradientUnits="userSpaceOnUse"><stop id="svg1.stop193" offset="0" stop-color="#fff" stop-opacity="0"/><stop id="svg1.stop195" offset="1" stop-color="#fff" stop-opacity=".275"/></linearGradient><linearGradient id="svg1.linearGradient2544" x1="541.335" x2="606.912" y1="104.507" y2="303.14" gradientTransform="matrix(-0.3937741,0,0,0.393752,357.51969,122.00151)" gradientUnits="userSpaceOnUse" xlink:href="#svg1.path1082_2_"/><linearGradient id="svg1.linearGradient3388"><stop id="svg1.stop3390" offset="0" stop-color="#000" stop-opacity="0"/><stop id="svg1.stop3392" offset="1" stop-color="#000" stop-opacity=".371"/></linearGradient><linearGradient id="svg1.linearGradient4416" x1="490.723" x2="490.723" y1="237.724" y2="183.964" gradientTransform="matrix(0.749107,0,0,0.749107,-35.459862,91.44108)" gradientUnits="userSpaceOnUse" xlink:href="#svg1.linearGradient3388"/><clipPath id="clipPath1" clipPathUnits="userSpaceOnUse"><path id="path26" d="M0 0 L921 0 L921 722 L0 722 L0 0 Z"/></clipPath><clipPath id="clipPath2" clipPathUnits="userSpaceOnUse"><path id="path29" d="M-51 10 L870 10 L870 732 L-51 732 L-51 10 Z"/></clipPath><clipPath id="clipPath3" clipPathUnits="userSpaceOnUse"><path id="path32" d="M-20.7718 -515.2812 L900.2282 -515.2812 L900.2282 206.7187 L-20.7718 206.7187 L-20.7718 -515.2812 Z"/></clipPath><clipPath id="clipPath4" clipPathUnits="userSpaceOnUse"><path id="path35" d="M-356.9779 -412.4446 L952.889 -412.4446 L952.889 614.4002 L-356.9779 614.4002 L-356.9779 -412.4446 Z"/></clipPath><clipPath id="clipPath5" clipPathUnits="userSpaceOnUse"><path id="path38" d="M-356.9779 -21.3334 L952.889 -21.3334 L952.889 1005.5114 L-356.9779 1005.5114 L-356.9779 -21.3334 Z"/></clipPath><clipPath id="clipPath6" clipPathUnits="userSpaceOnUse"><path id="path41" d="M-748.0891 -21.3334 L561.7779 -21.3334 L561.7779 1005.5114 L-748.0891 1005.5114 L-748.0891 -21.3334 Z"/></clipPath></defs><g id="svg1.layer1" transform="translate(-34.777313,-129.80241)"><g id="svg1.g2424" transform="matrix(0.8746356,0,0,0.8746356,14.730518,23.408954)"><g id="svg1.g2809" fill="#4d4d4d" fill-opacity="1" transform="matrix(0.6378586,0,0,0.6378586,36.486487,2.17139)"><path id="svg1.path2284" fill="#4d4d4d" fill-opacity="1" fill-rule="evenodd" stroke="none" d="m 339.96875,309.09375 c -14.47141,-0.0239 -26.4812,2.94367 -31.125,4.5625 l -4.78125,25.8125 c -0.0116,0.0951 23.79543,-6.34855 34.28125,-5.96875 17.36158,0.62381 18.95948,6.63541 18.65625,14.75 0.29595,0.47462 -4.47933,-7.33192 -19.5,-7.59375 -18.94961,-0.32687 -45.69284,6.70947 -45.65625,35.3125 -0.51086,32.17412 24.03361,41.63882 40.75,41.8125 15.02821,-0.27364 22.0777,-5.69136 25.9375,-8.59375 5.07124,-5.30236 10.87308,-10.63447 16.40625,-17.03125 -5.23567,9.51278 -9.77472,16.0898 -14.5,21.125 l 0,4.25 22.84375,-3.84375 0.15625,-62.09375 c -0.23141,-8.78839 5.04123,-42.41827 -43.46875,-42.5 z m -3.28125,54.0625 c 9.46889,0.12995 20.32788,4.79708 20.34375,16.03125 0.049,10.21821 -12.80005,15.71183 -21.15625,15.625 -8.35976,-0.0868 -19.45093,-6.56982 -19.5,-16.53125 0.16016,-8.90444 10.45953,-15.35418 20.3125,-15.125 z"/><path id="svg1.path2286" fill="#4d4d4d" fill-opacity="1" fill-rule="evenodd" stroke="none" d="m 398.50106,314.83145 -0.15505,102.82693 26.61213,-5.12724 0.0449,-58.30157 c 0.006,-8.68089 12.40554,-18.82451 27.9627,-18.66287 3.30202,-5.97408 9.5087,-21.24219 11.02088,-24.71514 -34.75649,-0.0833 -35.19897,9.98993 -41.24398,14.94517 -0.0631,-9.45285 -0.0213,-15.12741 -0.0213,-15.12741 l -24.2202,4.16213 z"/><path id="svg1.path2288" fill="#4d4d4d" fill-opacity="1" fill-rule="evenodd" stroke="none" d="m 548.2688,328.33058 c -0.25696,-0.12068 -13.87938,-15.93419 -41.26638,-16.0589 -25.65249,-0.42638 -54.42578,9.51895 -54.88631,52.5328 0.22457,37.81852 27.6402,52.59809 55.0314,52.88627 29.31292,0.30451 40.97654,-18.32947 41.67615,-18.79124 -3.49762,-3.0321 -16.59792,-16.0131 -16.59792,-16.0131 0,0 -8.18236,11.65102 -24.05802,11.79913 -15.87942,0.1512 -29.68245,-12.27325 -29.87805,-29.60905 -0.20349,-17.33595 12.68881,-26.72821 29.99725,-27.48687 14.98466,-0.003 23.6297,9.67334 23.6297,9.67334 l 16.35218,-18.93238 z"/><path id="svg1.path2290" fill="#4d4d4d" fill-opacity="1" fill-rule="evenodd" stroke="none" d="m 581.8125,278.84375 -25.125,5.90625 0.1875,133.9375 24.75,-4.46875 0.28125,-63.03125 c 0.0529,-6.60927 9.56127,-16.75916 25.4375,-16.4375 15.17973,0.15775 18.57236,10.11767 18.53125,11.375 l 0.4375,72.96875 24.40625,-4.3125 0.0937,-77.375 c 0.1607,-7.44539 -16.30833,-23.16954 -42.78125,-23.28125 -12.58087,0.0202 -19.54815,2.86825 -23.09375,4.96875 -6.06656,4.68565 -12.9998,9.17543 -19.8125,14.90625 6.29809,-8.09099 11.58551,-13.68516 16.75,-17.84375 l -0.0625,-37.3125 z"/></g><g id="svg1.g5326" fill="#1793d1" fill-opacity="1" stroke="none" transform="matrix(0.9443373,0,0.01336345,0.9443373,78.345657,-412.48879)"><path id="svg1.path2292" fill="#1793d1" fill-opacity="1" fill-rule="evenodd" stroke="none" d="m 400.67581,629.79609 7.68167,-1.91575 -0.92851,91.20792 -7.79574,1.32426 1.04258,-90.61643 z"/><path id="svg1.path2294" fill="#1793d1" fill-opacity="1" fill-rule="evenodd" stroke="none" d="m 421.10266,657.01757 6.75064,-2.9867 -0.86808,65.39931 -6.49779,1.33915 0.61523,-63.75176 z m -1.26059,-23.58316 5.47167,-4.41533 4.42261,4.99952 -5.47558,4.53221 -4.4187,-5.1164 z"/><path id="svg1.path2296" fill="#1793d1" fill-opacity="1" fill-rule="evenodd" stroke="none" d="m 440.44273,655.82614 7.67755,-1.56201 -0.1573,13.6722 c -0.007,0.58717 4.4194,-15.27364 24.68502,-14.92094 19.67986,0.10952 22.68401,15.34634 22.5291,18.76237 l -0.43759,48.0783 -6.73044,1.45631 0.63316,-47.489 c 0.0974,-1.38684 -2.88144,-13.11441 -16.78906,-13.15754 -13.90509,-0.0404 -23.68364,10.10048 -23.75821,16.57937 l -0.48127,41.83477 -7.80388,2.0313 0.63292,-65.28513 z"/><path id="svg1.path2298" fill="#1793d1" fill-opacity="1" fill-rule="evenodd" stroke="none" d="m 561.53301,720.20203 -7.6776,1.56186 0.15737,-13.67198 c 0.007,-0.58742 -4.42201,15.27361 -24.68504,14.92086 -19.67983,-0.10944 -22.68399,-15.34626 -22.52908,-18.76229 l 0.43757,-48.07861 8.15674,-1.64226 -0.54644,47.48988 c -0.0149,1.29682 1.36845,13.29979 15.27604,13.3426 13.90511,0.0405 23.76622,-8.37359 24.01453,-21.04416 l 0.43105,-37.46902 7.5978,-1.93195 -0.63294,65.28507 z"/><path id="svg1.path2300" fill="#1793d1" fill-opacity="1" fill-rule="evenodd" stroke="none" d="m 577.45461,655.28678 -5.42715,4.20017 20.19894,26.93328 -22.39092,31.11622 5.63499,4.226 21.04365,-28.8967 20.8779,29.58159 5.32727,-4.20103 -22.37578,-31.62866 18.56963,-25.5775 -5.53193,-4.73429 -16.92109,23.66778 -19.00551,-24.68686 z"/></g><path id="svg1.path2518" fill="#1793d1" fill-opacity="1" fill-rule="evenodd" stroke="none" d="m 105.8125,16.625 c -7.39687,18.135158 -11.858304,29.997682 -20.09375,47.59375 5.04936,5.35232 11.247211,11.585364 21.3125,18.625 C 96.210077,78.390904 88.828713,73.920352 83.3125,69.28125 72.7727,91.274163 56.259864,122.60209 22.75,182.8125 49.087628,167.60733 69.504089,158.23318 88.53125,154.65625 87.714216,151.1422 87.2497,147.34107 87.28125,143.375 l 0.03125,-0.84375 c 0.417917,-16.87382 9.195665,-29.84979 19.59375,-28.96875 10.39809,0.88104 18.48041,15.28242 18.0625,32.15625 -0.0786,3.17512 -0.43674,6.22955 -1.0625,9.0625 18.82058,3.68164 39.01873,13.03179 65,28.03125 -5.123,-9.4318 -9.69572,-17.93388 -14.0625,-26.03125 -6.87839,-5.33121 -14.05289,-12.2698 -28.6875,-19.78125 10.05899,2.61375 17.2611,5.62932 22.875,9 C 124.63297,63.338161 121.03766,52.354109 105.8125,16.625 z" transform="matrix(1.1433333,0,0,1.1433333,22.920168,121.64318)"/><g id="svg1.text2634" fill="#1793d1" fill-opacity="1" stroke="none" font-family="DejaVu Sans Mono" font-size="8.441" font-style="normal" font-weight="normal"><path id="svg1.path3945" fill="#1793d1" fill-opacity="1" d="m 685.46692,263.83624 0,-5.32944 -1.99082,0 0,-0.71307 4.7895,0 0,0.71307 -1.99906,0 0,5.32944 -0.79962,0"/><path id="svg1.path3947" fill="#1793d1" fill-opacity="1" d="m 689.0982,263.83624 0,-6.04251 1.20355,0 1.43026,4.2784 c 0.13189,0.39843 0.22806,0.69658 0.28852,0.89442 0.0687,-0.21983 0.17586,-0.5427 0.3215,-0.96862 l 1.44674,-4.2042 1.07578,0 0,6.04251 -0.77077,0 0,-5.05741 -1.75587,5.05741 -0.72131,0 -1.74763,-5.14396 0,5.14396 -0.77077,0"/></g><g id="svg1.text2638" fill="#1793d1" fill-opacity="1" stroke="none" font-family="DejaVu Sans Mono" font-size="8.251" font-style="normal" font-weight="normal"><path id="svg1.path3940" fill="#1793d1" fill-opacity="1" d="m 239.84053,313.69965 0,-5.20945 -1.94598,0 0,-0.697 4.68164,0 0,0.697 -1.95404,0 0,5.20945 -0.78162,0"/><path id="svg1.path3942" fill="#1793d1" fill-opacity="1" d="m 243.39004,313.69965 0,-5.90645 1.17646,0 1.39805,4.18205 c 0.12892,0.38947 0.22293,0.6809 0.28202,0.87429 0.0671,-0.21488 0.1719,-0.53048 0.31426,-0.94681 l 1.41417,-4.10953 1.05155,0 0,5.90645 -0.75341,0 0,-4.94353 -1.71634,4.94353 -0.70506,0 -1.70828,-5.02814 0,5.02814 -0.75342,0"/></g></g></g></svg></g></g><g id="g63" shape-rendering="geometricPrecision" text-rendering="geometricPrecision" transform="matrix(0.7031,0,0,0.7031,251,290)"><g id="g65" clip-path="url(#clipPath4)"><svg id="svg2.svg2" width="213.333" height="213.333" fill="#000" fill-opacity="1" fill-rule="nonzero" stroke="none" stroke-dasharray="none" stroke-dashoffset="0" stroke-linecap="butt" stroke-linejoin="miter" stroke-miterlimit="4" stroke-opacity="1" stroke-width="1" marker-end="none" marker-mid="none" marker-start="none" alignment-baseline="auto" baseline-shift="baseline" clip="auto" clip-path="none" clip-rule="nonzero" color="#000" color-interpolation="srgb" color-interpolation-filters="linearrgb" color-profile="auto" color-rendering="auto" cursor="auto" direction="ltr" display="inline" dominant-baseline="auto" enable-background="accumulate" filter="none" flood-color="#000" flood-opacity="1" font-family="&quot;Arial&quot;,&quot;Helvetica&quot;,sans-serif" font-size="12" font-size-adjust="none" font-stretch="normal" font-style="normal" font-variant="normal" font-weight="400" glyph-orientation-horizontal="0deg" glyph-orientation-vertical="auto" image-rendering="auto" kerning="auto" letter-spacing="normal" lighting-color="#FFF" mask="none" opacity="1" overflow="visible" pointer-events="visiblepainted" shape-rendering="auto" src="none" stop-color="#000" stop-opacity="1" text-anchor="start" text-decoration="none" text-rendering="auto" unicode-bidi="normal" version="1.1" viewBox="0 0 200 200" visibility="visible" word-spacing="normal" writing-mode="lr-tb"><metadata id="svg2.metadata7"/><g id="svg2.layer1" transform="translate(222.41168,-236.90016)"><g id="svg2.g4335-6" fill="#35bf5c" fill-opacity="1" transform="matrix(1.2196132,0,0,1.0000088,-481.7083,-347.58743)"><g id="svg2.g4446" transform="translate(11.595591,121.6213)"><rect id="svg2.rect4149-7" width="47.995" height="199.998" x="317.002" y="462.861" fill="#35bf5c" fill-opacity="1" fill-rule="evenodd" stroke="none" stroke-dasharray="21.222 21.222" stroke-dashoffset="0" stroke-linecap="round" stroke-linejoin="miter" stroke-miterlimit="4" stroke-opacity="1" stroke-width="7.074" opacity="1"/><rect id="svg2.rect4149-0-6" width="47.995" height="129.268" x="259.004" y="533.592" fill="#35bf5c" fill-opacity="1" fill-rule="evenodd" stroke="none" stroke-dasharray="21.222 21.222" stroke-dashoffset="0" stroke-linecap="round" stroke-linejoin="miter" stroke-miterlimit="4" stroke-opacity="1" stroke-width="7.074" opacity="1"/><rect id="svg2.rect4149-0-4-9" width="47.995" height="199.998" x="201.01" y="462.861" fill="#35bf5c" fill-opacity="1" fill-rule="evenodd" stroke="none" stroke-dasharray="21.222 21.222" stroke-dashoffset="0" stroke-linecap="round" stroke-linejoin="miter" stroke-miterlimit="4" stroke-opacity="1" stroke-width="7.074" opacity="1"/><rect id="svg2.rect4149-0-6-7" width="58.534" height="88.963" x="462.861" y="-307" fill="#35bf5c" fill-opacity="1" fill-rule="evenodd" stroke="none" stroke-dasharray="21.222 21.222" stroke-dashoffset="0" stroke-linecap="round" stroke-linejoin="miter" stroke-miterlimit="4" stroke-opacity="1" stroke-width="7.074" opacity="1" transform="matrix(0,1,-1,0,0,0)"/></g></g></g></svg></g></g><g id="g77" fill="#454948" stroke="#454948" stroke-linecap="butt" stroke-miterlimit="1.45" font-family="'Comfortaa'" font-size="50" shape-rendering="geometricPrecision" text-rendering="geometricPrecision" transform="matrix(1,0,0,1,51,-10)"><text id="text79" x="-30.447" y="363.281" stroke="none" clip-path="url(#clipPath2)" xml:space="preserve">manjaro</text></g><g id="g81" fill="#454948" stroke="#454948" stroke-linecap="butt" stroke-miterlimit="1.45" font-family="Comfortaa" font-size="50" shape-rendering="geometricPrecision" text-rendering="geometricPrecision" transform="matrix(0.63255212,0,0,0.63255212,77.292611,132.66498)"><text id="text83" x="-33.426" y="414.063" stroke="none" clip-path="url(#clipPath2)" xml:space="preserve">Unstable</text></g><g id="g85" shape-rendering="geometricPrecision" text-rendering="geometricPrecision" transform="matrix(0.7031,0,0,0.7031,251,15)"><g id="g87" clip-path="url(#clipPath5)"><svg id="svg3.svg2" width="213.333" height="213.333" fill="#000" fill-opacity="1" fill-rule="nonzero" stroke="none" stroke-dasharray="none" stroke-dashoffset="0" stroke-linecap="butt" stroke-linejoin="miter" stroke-miterlimit="4" stroke-opacity="1" stroke-width="1" marker-end="none" marker-mid="none" marker-start="none" alignment-baseline="auto" baseline-shift="baseline" clip="auto" clip-path="none" clip-rule="nonzero" color="#000" color-interpolation="srgb" color-interpolation-filters="linearrgb" color-profile="auto" color-rendering="auto" cursor="auto" direction="ltr" display="inline" dominant-baseline="auto" enable-background="accumulate" filter="none" flood-color="#000" flood-opacity="1" font-family="&quot;Arial&quot;,&quot;Helvetica&quot;,sans-serif" font-size="12" font-size-adjust="none" font-stretch="normal" font-style="normal" font-variant="normal" font-weight="400" glyph-orientation-horizontal="0deg" glyph-orientation-vertical="auto" image-rendering="auto" kerning="auto" letter-spacing="normal" lighting-color="#FFF" mask="none" opacity="1" overflow="visible" pointer-events="visiblepainted" shape-rendering="auto" src="none" stop-color="#000" stop-opacity="1" text-anchor="start" text-decoration="none" text-rendering="auto" unicode-bidi="normal" version="1.1" viewBox="0 0 200 200" visibility="visible" word-spacing="normal" writing-mode="lr-tb"><metadata id="svg3.metadata7"/><g id="svg3.layer1" transform="translate(222.41168,-236.90016)"><g id="svg3.g4335-6" fill="#35bf5c" fill-opacity="1" transform="matrix(1.2196132,0,0,1.0000088,-481.7083,-347.58743)"><g id="svg3.g4446" transform="translate(11.595591,121.6213)"><rect id="svg3.rect4149-7" width="47.995" height="199.998" x="317.002" y="462.861" fill="#35bf5c" fill-opacity="1" fill-rule="evenodd" stroke="none" stroke-dasharray="21.222 21.222" stroke-dashoffset="0" stroke-linecap="round" stroke-linejoin="miter" stroke-miterlimit="4" stroke-opacity="1" stroke-width="7.074" opacity="1"/><rect id="svg3.rect4149-0-6" width="47.995" height="129.268" x="259.004" y="533.592" fill="#35bf5c" fill-opacity="1" fill-rule="evenodd" stroke="none" stroke-dasharray="21.222 21.222" stroke-dashoffset="0" stroke-linecap="round" stroke-linejoin="miter" stroke-miterlimit="4" stroke-opacity="1" stroke-width="7.074" opacity="1"/><rect id="svg3.rect4149-0-4-9" width="47.995" height="199.998" x="201.01" y="462.861" fill="#35bf5c" fill-opacity="1" fill-rule="evenodd" stroke="none" stroke-dasharray="21.222 21.222" stroke-dashoffset="0" stroke-linecap="round" stroke-linejoin="miter" stroke-miterlimit="4" stroke-opacity="1" stroke-width="7.074" opacity="1"/><rect id="svg3.rect4149-0-6-7" width="58.534" height="88.963" x="462.861" y="-307" fill="#35bf5c" fill-opacity="1" fill-rule="evenodd" stroke="none" stroke-dasharray="21.222 21.222" stroke-dashoffset="0" stroke-linecap="round" stroke-linejoin="miter" stroke-miterlimit="4" stroke-opacity="1" stroke-width="7.074" opacity="1" transform="matrix(0,1,-1,0,0,0)"/></g></g></g></svg></g></g><g id="g99" fill="#454948" stroke="#454948" stroke-linecap="butt" stroke-miterlimit="1.45" font-family="'Comfortaa'" font-size="50" shape-rendering="geometricPrecision" text-rendering="geometricPrecision" transform="matrix(1,0,0,1,51,-10)"><text id="text101" x="-27.469" y="88.281" stroke="none" clip-path="url(#clipPath2)" xml:space="preserve">manjaro</text><text id="text103" x="-15.799" y="139.063" stroke="none" clip-path="url(#clipPath2)" transform="matrix(0.63255212,0,0,0.63255212,26.292611,40.226195)" xml:space="preserve">Testing</text></g><g id="g105" shape-rendering="geometricPrecision" text-rendering="geometricPrecision" transform="matrix(0.7031,0,0,0.7031,526,15)"><g id="g107" clip-path="url(#clipPath6)"><svg id="svg4.svg2" width="213.333" height="213.333" fill="#000" fill-opacity="1" fill-rule="nonzero" stroke="none" stroke-dasharray="none" stroke-dashoffset="0" stroke-linecap="butt" stroke-linejoin="miter" stroke-miterlimit="4" stroke-opacity="1" stroke-width="1" marker-end="none" marker-mid="none" marker-start="none" alignment-baseline="auto" baseline-shift="baseline" clip="auto" clip-path="none" clip-rule="nonzero" color="#000" color-interpolation="srgb" color-interpolation-filters="linearrgb" color-profile="auto" color-rendering="auto" cursor="auto" direction="ltr" display="inline" dominant-baseline="auto" enable-background="accumulate" filter="none" flood-color="#000" flood-opacity="1" font-family="&quot;Arial&quot;,&quot;Helvetica&quot;,sans-serif" font-size="12" font-size-adjust="none" font-stretch="normal" font-style="normal" font-variant="normal" font-weight="400" glyph-orientation-horizontal="0deg" glyph-orientation-vertical="auto" image-rendering="auto" kerning="auto" letter-spacing="normal" lighting-color="#FFF" mask="none" opacity="1" overflow="visible" pointer-events="visiblepainted" shape-rendering="auto" src="none" stop-color="#000" stop-opacity="1" text-anchor="start" text-decoration="none" text-rendering="auto" unicode-bidi="normal" version="1.1" viewBox="0 0 200 200" visibility="visible" word-spacing="normal" writing-mode="lr-tb"><metadata id="svg4.metadata7"/><g id="svg4.layer1" transform="translate(222.41168,-236.90016)"><g id="svg4.g4335-6" fill="#35bf5c" fill-opacity="1" transform="matrix(1.2196132,0,0,1.0000088,-481.7083,-347.58743)"><g id="svg4.g4446" transform="translate(11.595591,121.6213)"><rect id="svg4.rect4149-7" width="47.995" height="199.998" x="317.002" y="462.861" fill="#35bf5c" fill-opacity="1" fill-rule="evenodd" stroke="none" stroke-dasharray="21.222 21.222" stroke-dashoffset="0" stroke-linecap="round" stroke-linejoin="miter" stroke-miterlimit="4" stroke-opacity="1" stroke-width="7.074" opacity="1"/><rect id="svg4.rect4149-0-6" width="47.995" height="129.268" x="259.004" y="533.592" fill="#35bf5c" fill-opacity="1" fill-rule="evenodd" stroke="none" stroke-dasharray="21.222 21.222" stroke-dashoffset="0" stroke-linecap="round" stroke-linejoin="miter" stroke-miterlimit="4" stroke-opacity="1" stroke-width="7.074" opacity="1"/><rect id="svg4.rect4149-0-4-9" width="47.995" height="199.998" x="201.01" y="462.861" fill="#35bf5c" fill-opacity="1" fill-rule="evenodd" stroke="none" stroke-dasharray="21.222 21.222" stroke-dashoffset="0" stroke-linecap="round" stroke-linejoin="miter" stroke-miterlimit="4" stroke-opacity="1" stroke-width="7.074" opacity="1"/><rect id="svg4.rect4149-0-6-7" width="58.534" height="88.963" x="462.861" y="-307" fill="#35bf5c" fill-opacity="1" fill-rule="evenodd" stroke="none" stroke-dasharray="21.222 21.222" stroke-dashoffset="0" stroke-linecap="round" stroke-linejoin="miter" stroke-miterlimit="4" stroke-opacity="1" stroke-width="7.074" opacity="1" transform="matrix(0,1,-1,0,0,0)"/></g></g></g></svg></g></g><g id="g119" fill="#454948" stroke="#454948" stroke-linecap="butt" stroke-miterlimit="1.45" font-family="'Comfortaa'" font-size="50" shape-rendering="geometricPrecision" text-rendering="geometricPrecision" transform="matrix(1,0,0,1,51,-10)"><text id="text121" x="647" y="113.672" stroke="none" clip-path="url(#clipPath2)" xml:space="preserve">manjaro</text><path id="path123" fill="none" stroke-width="7" d="M275 562.255 L275 495.6667" clip-path="url(#clipPath2)"/><path id="path125" stroke="none" stroke-width="7" d="M275 481.6667 L266.25 502.6667 L275 497.4167 L283.75 502.6667 Z" clip-path="url(#clipPath2)"/><text id="text127" x="292.257" y="532.958" stroke="none" clip-path="url(#clipPath2)" font-size="30" xml:space="preserve">Daily</text><path id="path129" fill="none" stroke-width="7" d="M275 268.3333 L275 220.6667" clip-path="url(#clipPath2)"/><path id="path131" stroke="none" stroke-width="7" d="M275 206.6667 L266.25 227.6667 L275 222.4167 L283.75 227.6667 Z" clip-path="url(#clipPath2)"/><path id="path133" fill="none" stroke-width="7" d="M381.6667 375 L550 375 L550 220.6667" clip-path="url(#clipPath2)"/><path id="path135" stroke="none" stroke-width="7" d="M550 206.6667 L541.25 227.6667 L550 222.4167 L558.75 227.6667 Z" clip-path="url(#clipPath2)"/><text id="text137" x="579.962" y="336.474" stroke="none" clip-path="url(#clipPath2)" font-size="30" xml:space="preserve">Fast-Tracking:</text><text id="text139" x="561.945" y="366.942" stroke="none" clip-path="url(#clipPath2)" font-size="30" xml:space="preserve">Security Updates</text><path id="path141" fill="none" stroke-width="7" d="M381.6667 100 L429.3333 100" clip-path="url(#clipPath2)"/><path id="path143" stroke="none" stroke-width="7" d="M443.3333 100 L422.3333 91.25 L427.5833 100 L422.3333 108.75 Z" clip-path="url(#clipPath2)"/></g></g></svg>