<svg xmlns="http://www.w3.org/2000/svg" xmlns:svg="http://www.w3.org/2000/svg" id="svg2" width="64" height="64" version="1.1" viewBox="0 0 64 64"><metadata id="metadata12"/><defs id="defs3051"><style id="current-color-scheme" type="text/css">.ColorScheme-Text{color:#4d4d4d}</style></defs><a id="a6" transform="matrix(3.4533898,0,0,3.4533898,-5.9872881,-5.9872881)"><path id="path8" fill="currentColor" fill-opacity="1" stroke="none" d="m 11,3 -8,4.6230469 0,0.375 L 3,9 l 1,0 0,1 0,8 -1,0 0,1 16,0 0,-1 -1,0 0,-8 0,-1 1,0 0,-1.0019531 0,-0.375 L 11,3 Z m 0,1.15625 6.650391,3.8417969 -13.3007816,0 L 11,4.15625 Z M 5,9 7,9 7,10 7,18 5,18 5,10 5,9 Z m 3,0 6,0 0,1 0,8 -1,0 0,-4 -4,0 0,4 -1,0 0,-8 0,-1 z m 7,0 2,0 0,1 0,8 -2,0 0,-8 0,-1 z" class="ColorScheme-Text" color="#4d4d4d"/></a></svg>