<svg xmlns="http://www.w3.org/2000/svg" xmlns:svg="http://www.w3.org/2000/svg" id="svg2" width="64" height="64" version="1.1" viewBox="0 0 64 64"><metadata id="metadata84"/><path id="rect4186" fill="#4d4d4d" fill-opacity="1" d="M 15.460085,9.9969205 4.4961479,20.960858 l 0,0.0376 25.1026361,30.125313 0.107439,0.128924 L 32,54.003084 l 2.401216,-2.879309 0.161156,-0.19876 24.94148,-29.926553 0,-0.02149 -10.980055,-10.9800555 -0.02149,0 -30.033992,0 z m 1.138833,2.7503855 2.610715,0 1.471888,5.50077 -9.583373,0 z m 5.457796,0 6.720178,0 -3.174761,5.50077 -2.06816,0 z m 9.900311,0 0.08595,0 3.174761,5.50077 -6.435472,0 z m 3.266083,0 6.720178,0 -1.477257,5.50077 -2.06816,0 z m 9.57263,0 2.589229,0 5.500771,5.50077 -9.567259,0 z m -36.7595445,8.251155 0.3115691,0 13.0697014,0 6.354894,23.705958 z m 16.2337195,0 2.922284,0 9.615606,0 2.922284,0 L 32.02686,49.753954 32,49.786184 31.97314,49.753954 Z m 18.312623,0 13.053587,0 0.327684,0 -19.736165,23.705958 z"/></svg>