<svg xmlns="http://www.w3.org/2000/svg" width="48" height="48"><defs><linearGradient id="a" x1="19.33" x2="19.472" y1="62.5" y2="3.807" gradientUnits="userSpaceOnUse"><stop stop-color="#212329"/><stop offset="1" stop-color="#31363b"/></linearGradient><linearGradient id="b" x2="0" y1="10" y2="32" gradientTransform="translate(1)" gradientUnits="userSpaceOnUse"><stop stop-color="#f67400"/><stop offset="1" stop-color="#ed1515"/></linearGradient><linearGradient id="c" x1="16" x2="43.999" y1="12.997" y2="41" gradientUnits="userSpaceOnUse"><stop stop-color="#292c2f"/><stop offset="1" stop-opacity="0"/></linearGradient></defs><path fill="url(#a)" d="m4 3.725v47.6h11.202l-.004 11.2 11.202-11.2h33.6v-47.6z" transform="matrix(.71429 0 0 .71429 1.143 1.339)"/><path fill="url(#b)" d="m13 13l3-3 8 8 8-8 3 3-8 8 8 8-3 3-8-8-8 8-3-3 8-8z"/><path fill="url(#c)" fill-rule="evenodd" d="m35 13l-8 8 8 8-3 3-8-8-8 8 6 6h22v-15z" opacity=".2"/></svg>