<svg xmlns="http://www.w3.org/2000/svg" xmlns:xlink="http://www.w3.org/1999/xlink" width="32" height="32" version="1.1"><defs id="defs5455"><linearGradient id="linearGradient4293"><stop id="stop4295"/><stop id="stop4297" offset="1" stop-opacity="0"/></linearGradient><linearGradient id="linearGradient4303-6"><stop id="stop4305-7" stop-color="#c6cdd1"/><stop id="stop4307-0" offset="1" stop-color="#e0e5e7"/></linearGradient><linearGradient id="linearGradient4298"><stop id="stop4300" stop-color="#42a603"/><stop id="stop4302" offset="1" stop-color="#78da06"/></linearGradient><linearGradient id="linearGradient4308" x2="0" y1="539.798" y2="527.798" gradientUnits="userSpaceOnUse" xlink:href="#linearGradient4298"/><linearGradient id="linearGradient4643-8" x2="0" y1="543.798" y2="502.655" gradientTransform="matrix(0.66666726 0 0 0.63518419 141.19014 191.51873)" gradientUnits="userSpaceOnUse" xlink:href="#linearGradient4303-6"/><linearGradient id="linearGradient4183" x1="391.571" x2="406.571" y1="525.798" y2="540.798" gradientTransform="matrix(1 0 0 1 12.999989 -6.99997)" gradientUnits="userSpaceOnUse" xlink:href="#linearGradient4293"/><linearGradient id="linearGradient4256" x1="5" x2="21" y1="11" y2="27" gradientUnits="userSpaceOnUse" xlink:href="#linearGradient4293"/></defs><metadata id="metadata5458"/><g id="layer1" transform="matrix(1 0 0 1 -384.57143 -515.798)"><g id="g4244" transform="matrix(1 0 0 1 -12.999996 6.999998)"><rect id="rect4641-5" width="32" height="28" x="397.571" y="510.798" fill="url(#linearGradient4643-8)" rx="0"/><path id="path4167" fill="url(#linearGradient4183)" fill-rule="evenodd" d="m 398.57142,536.79803 30,-20 1.00001,1 -1e-5,20.99997 -29,3e-5 z" opacity=".2"/><rect id="rect4645-7-7" width="32" height="1" x="397.571" y="537.798" fill="#99a1a7"/><rect id="rect4647-8" width="32" height="4" x="397.571" y="510.798" fill="#566069"/><rect id="rect4649-8" width="32" height="1" x="397.571" y="514.798" fill="#3daee9"/><rect id="rect4653-5" width="30" height="20" x="398.571" y="516.798" fill="#fff"/><rect id="rect4661-1" width="2" height="2" x="426.571" y="511.798" fill="#eff0f1" rx="1"/></g><path id="path4242" fill="url(#linearGradient4256)" fill-rule="evenodd" d="M 21 18 L 12 24 L 18 30 L 25 30 L 32 30 L 21 18 z" opacity=".2" transform="matrix(1 0 0 1 384.57143 515.798)"/><path id="path4237-9" fill="url(#linearGradient4308)" fill-rule="evenodd" d="m 396.57141,527.79796 0,12 9,-6 z"/></g></svg>