<svg xmlns="http://www.w3.org/2000/svg" xmlns:svg="http://www.w3.org/2000/svg" xmlns:xlink="http://www.w3.org/1999/xlink" id="svg2" width="48" height="48" version="1.1"><metadata id="metadata37"/><defs id="defs4"><linearGradient id="linearGradient4298"><stop id="stop4300" offset="0" stop-color="#000" stop-opacity="1"/><stop id="stop4302" offset="1" stop-color="#000" stop-opacity="0"/></linearGradient><linearGradient id="linearGradient4214"><stop id="stop4216" offset="0" stop-color="#fff" stop-opacity="1"/><stop id="stop4218" offset="1" stop-color="#fff" stop-opacity="0"/></linearGradient><linearGradient id="a" x1="428.816" x2="388.865" y1="547.634" y2="499.679" gradientTransform="translate(-384.57,-499.8)" gradientUnits="userSpaceOnUse"><stop id="stop7" stop-color="#2a2c2f"/><stop id="stop9" offset="1" stop-color="#536161"/></linearGradient><linearGradient id="b" x1="36" x2="14" y1="44" y2="12" gradientUnits="userSpaceOnUse"><stop id="stop12" stop-color="#bfc9c9" stop-opacity="1"/><stop id="stop14" offset="1" stop-color="#fbfbfb" stop-opacity="1"/></linearGradient><linearGradient id="c" x1="418.57" x2="419.974" y1="529.8" y2="539.825" gradientTransform="translate(-384.57,-499.8)" gradientUnits="userSpaceOnUse"><stop id="stop17" stop-color="#292c2f"/><stop id="stop19" offset="1" stop-opacity="0"/></linearGradient><style id="current-color-scheme" type="text/css"/><linearGradient id="linearGradient4220" x1="1" x2="25" y1="0" y2="27" gradientUnits="userSpaceOnUse" xlink:href="#linearGradient4214"/><linearGradient id="c-6" x1="406.501" x2="419.974" y1="527.014" y2="539.825" gradientTransform="translate(-404.99,-523.8)" gradientUnits="userSpaceOnUse"><stop id="stop17-7" stop-color="#292c2f"/><stop id="stop19-5" offset="1" stop-opacity="0"/></linearGradient><linearGradient id="linearGradient4304" x1="26.929" x2="47.121" y1="5.995" y2="37.127" gradientUnits="userSpaceOnUse" xlink:href="#linearGradient4298"/></defs><rect id="rect23" width="40" height="40" x="4" y="4" fill="#2d3033" fill-opacity="1" rx="1" ry="1"/><path id="path4265" fill="url(#linearGradient4304)" fill-opacity="1" fill-rule="evenodd" stroke="none" stroke-dasharray="none" stroke-dashoffset="0" stroke-linecap="butt" stroke-linejoin="miter" stroke-miterlimit="4" stroke-opacity="1" stroke-width="1" d="M 9.2310583,29.687039 22.544019,43 44,43 43.996094,26.875 34.03125,16.890625 9.28125,19.742187 18,28.460937 Z" clip-rule="nonzero" color="#000" color-interpolation="sRGB" color-interpolation-filters="linearRGB" color-rendering="auto" display="inline" enable-background="accumulate" image-rendering="auto" opacity=".4" overflow="visible" shape-rendering="auto" text-rendering="auto" visibility="visible" style="isolation:auto;mix-blend-mode:normal;solid-color:#000;solid-opacity:1"/><path id="rect4185" fill="#000" fill-opacity="1" d="M 4 42 L 4 43 C 4 43.554007 4.4459958 44 5 44 L 43 44 C 43.554004 44 44 43.554007 44 43 L 44 42 C 44 42.554007 43.554004 43 43 43 L 5 43 C 4.4459958 43 4 42.554007 4 42 z" opacity=".3"/><path id="path4200" fill="#fff" fill-opacity="1" d="M 4,6 4,5 C 4,4.445993 4.445996,4 5,4 l 38,0 c 0.554004,0 1,0.445993 1,1 l 0,1 C 44,5.445993 43.554004,5 43,5 L 5,5 C 4.445996,5 4,5.445993 4,6 Z" opacity=".3"/><rect clip-rule="nonzero" style="isolation:auto;mix-blend-mode:normal;solid-color:#000;solid-opacity:1;marker:none" id="rect4159" width="30" height="2" x="9" y="18" fill="#fff" fill-opacity="1" fill-rule="evenodd" stroke="none" stroke-dasharray="none" stroke-dashoffset="0" stroke-linecap="butt" stroke-linejoin="miter" stroke-miterlimit="4" stroke-opacity="1" stroke-width="1" color="#000" color-interpolation="sRGB" color-interpolation-filters="linearRGB" color-rendering="auto" display="inline" enable-background="accumulate" image-rendering="auto" opacity=".194" overflow="visible" rx="1" ry=".956" shape-rendering="auto" text-rendering="auto" visibility="visible"/><path id="path4172" fill="#3daee9" fill-opacity="1" fill-rule="evenodd" stroke="none" stroke-dasharray="none" stroke-dashoffset="0" stroke-linecap="butt" stroke-linejoin="miter" stroke-miterlimit="4" stroke-opacity="1" stroke-width="1" d="m 9.9614367,17.987883 c -0.5571194,0 -1.0056309,0.448511 -1.0056309,1.005631 0,0.55712 0.4485115,1.005631 1.0056309,1.005631 l 21.0563103,0 0,-2.011262 z" clip-rule="nonzero" color="#000" color-interpolation="sRGB" color-interpolation-filters="linearRGB" color-rendering="auto" display="inline" enable-background="accumulate" image-rendering="auto" opacity="1" overflow="visible" shape-rendering="auto" text-rendering="auto" visibility="visible" style="isolation:auto;mix-blend-mode:normal;solid-color:#000;solid-opacity:1;marker:none"/><path id="path4242" fill="#fff" fill-opacity="1" fill-rule="evenodd" stroke="none" stroke-dasharray="none" stroke-dashoffset="0" stroke-linecap="butt" stroke-linejoin="miter" stroke-miterlimit="4" stroke-opacity="1" stroke-width="1" d="M 9.9609375 17.988281 C 9.4038181 17.988281 8.9550781 18.437021 8.9550781 18.994141 C 8.9550781 19.088867 8.9855035 19.172989 9.0097656 19.259766 C 9.1277856 18.835543 9.4980923 18.519531 9.9609375 18.519531 L 31.017578 18.519531 L 31.017578 17.988281 L 9.9609375 17.988281 z" clip-rule="nonzero" color="#000" color-interpolation="sRGB" color-interpolation-filters="linearRGB" color-rendering="auto" display="inline" enable-background="accumulate" image-rendering="auto" opacity=".3" overflow="visible" shape-rendering="auto" text-rendering="auto" visibility="visible" style="isolation:auto;mix-blend-mode:normal;solid-color:#000;solid-opacity:1;marker:none"/><circle id="circle4174" cx="31.972" cy="18.939" r="2.912" fill="#fafafa" fill-opacity="1" fill-rule="evenodd" stroke="none" stroke-dasharray="none" stroke-dashoffset="0" stroke-linecap="butt" stroke-linejoin="miter" stroke-miterlimit="4" stroke-opacity="1" stroke-width="1" clip-rule="nonzero" color="#000" color-interpolation="sRGB" color-interpolation-filters="linearRGB" color-rendering="auto" display="inline" enable-background="accumulate" image-rendering="auto" opacity="1" overflow="visible" shape-rendering="auto" text-rendering="auto" visibility="visible" style="isolation:auto;mix-blend-mode:normal;solid-color:#000;solid-opacity:1;marker:none"/><g id="layer2" display="inline"><rect id="rect4212" width="40" height="40" x="4" y="4" fill="url(#linearGradient4220)" fill-opacity="1" opacity=".276" rx="1" ry="1"/></g><rect id="rect4225" width="30" height="2" x="9" y="28" fill="#fff" fill-opacity="1" fill-rule="evenodd" stroke="none" stroke-dasharray="none" stroke-dashoffset="0" stroke-linecap="butt" stroke-linejoin="miter" stroke-miterlimit="4" stroke-opacity="1" stroke-width="1" clip-rule="nonzero" color="#000" color-interpolation="sRGB" color-interpolation-filters="linearRGB" color-rendering="auto" display="inline" enable-background="accumulate" image-rendering="auto" opacity=".194" overflow="visible" rx="1" ry=".823" shape-rendering="auto" text-rendering="auto" visibility="visible" style="isolation:auto;mix-blend-mode:normal;solid-color:#000;solid-opacity:1;marker:none"/><path id="path4227" fill="#3daee9" fill-opacity="1" fill-rule="evenodd" stroke="none" stroke-dasharray="none" stroke-dashoffset="0" stroke-linecap="butt" stroke-linejoin="miter" stroke-miterlimit="4" stroke-opacity="1" stroke-width="1" d="m 9.9614367,27.987883 c -0.5571194,0 -1.0056309,0.448511 -1.0056309,1.005631 0,0.55712 0.4485115,1.005631 1.0056309,1.005631 l 11.0563103,0 0,-2.011262 z" clip-rule="nonzero" color="#000" color-interpolation="sRGB" color-interpolation-filters="linearRGB" color-rendering="auto" display="inline" enable-background="accumulate" image-rendering="auto" opacity="1" overflow="visible" shape-rendering="auto" text-rendering="auto" visibility="visible" style="isolation:auto;mix-blend-mode:normal;solid-color:#000;solid-opacity:1;marker:none"/><path id="path4247" fill="#fff" fill-opacity="1" fill-rule="evenodd" stroke="none" stroke-dasharray="none" stroke-dashoffset="0" stroke-linecap="butt" stroke-linejoin="miter" stroke-miterlimit="4" stroke-opacity="1" stroke-width="1" d="m 9.9609375,27.988281 c -0.5571194,0 -1.0058594,0.44874 -1.0058594,1.00586 0,0.09473 0.030425,0.178848 0.054687,0.265625 0.11802,-0.424223 0.4883267,-0.740235 0.9511719,-0.740235 l 11.056641,0 0,-0.53125 z" clip-rule="nonzero" color="#000" color-interpolation="sRGB" color-interpolation-filters="linearRGB" color-rendering="auto" display="inline" enable-background="accumulate" image-rendering="auto" opacity=".3" overflow="visible" shape-rendering="auto" text-rendering="auto" visibility="visible" style="isolation:auto;mix-blend-mode:normal;solid-color:#000;solid-opacity:1;marker:none"/><circle id="circle4229" cx="19.972" cy="28.939" r="2.912" fill="#fafafa" fill-opacity="1" fill-rule="evenodd" stroke="none" stroke-dasharray="none" stroke-dashoffset="0" stroke-linecap="butt" stroke-linejoin="miter" stroke-miterlimit="4" stroke-opacity="1" stroke-width="1" clip-rule="nonzero" color="#000" color-interpolation="sRGB" color-interpolation-filters="linearRGB" color-rendering="auto" display="inline" enable-background="accumulate" image-rendering="auto" opacity="1" overflow="visible" shape-rendering="auto" text-rendering="auto" visibility="visible" style="isolation:auto;mix-blend-mode:normal;solid-color:#000;solid-opacity:1;marker:none"/><path id="circle4231" fill="#000" fill-opacity="1" fill-rule="evenodd" stroke="none" stroke-dasharray="none" stroke-dashoffset="0" stroke-linecap="butt" stroke-linejoin="miter" stroke-miterlimit="4" stroke-opacity="1" stroke-width="1" d="M 34.876953 18.724609 A 2.9116116 2.9116116 0 0 1 31.972656 21.476562 A 2.9116116 2.9116116 0 0 1 29.068359 18.777344 A 2.9116116 2.9116116 0 0 0 29.060547 18.939453 A 2.9116116 2.9116116 0 0 0 31.972656 21.851562 A 2.9116116 2.9116116 0 0 0 34.884766 18.939453 A 2.9116116 2.9116116 0 0 0 34.876953 18.724609 z" clip-rule="nonzero" color="#000" color-interpolation="sRGB" color-interpolation-filters="linearRGB" color-rendering="auto" display="inline" enable-background="accumulate" image-rendering="auto" opacity=".15" overflow="visible" shape-rendering="auto" text-rendering="auto" visibility="visible" style="isolation:auto;mix-blend-mode:normal;solid-color:#000;solid-opacity:1;marker:none"/><path id="path4240" fill="#000" fill-opacity="1" fill-rule="evenodd" stroke="none" stroke-dasharray="none" stroke-dashoffset="0" stroke-linecap="butt" stroke-linejoin="miter" stroke-miterlimit="4" stroke-opacity="1" stroke-width="1" d="m 22.876953,28.724609 a 2.9116116,2.9116116 0 0 1 -2.904297,2.751953 2.9116116,2.9116116 0 0 1 -2.904297,-2.699218 2.9116116,2.9116116 0 0 0 -0.0078,0.162109 2.9116116,2.9116116 0 0 0 2.912109,2.912109 2.9116116,2.9116116 0 0 0 2.91211,-2.912109 2.9116116,2.9116116 0 0 0 -0.0078,-0.214844 z" clip-rule="nonzero" color="#000" color-interpolation="sRGB" color-interpolation-filters="linearRGB" color-rendering="auto" display="inline" enable-background="accumulate" image-rendering="auto" opacity=".15" overflow="visible" shape-rendering="auto" text-rendering="auto" visibility="visible" style="isolation:auto;mix-blend-mode:normal;solid-color:#000;solid-opacity:1;marker:none"/></svg>